<svg xmlns="http://www.w3.org/2000/svg" width="146.829" height="146.829" viewBox="0 0 146.829 146.829">
  <g id="Grupo_3020" data-name="Grupo 3020" transform="translate(-312.319 -2794.022)">
    <g id="Grupo_1389" data-name="Grupo 1389" transform="translate(-1664 -7)">
      <path id="Trazado_752" data-name="Trazado 752" d="M2050.607,2807.371q3.3,0,6.592.323t6.528.969q3.241.645,6.4,1.6t6.214,2.224q3.052,1.265,5.967,2.822t5.66,3.393q2.748,1.834,5.3,3.931t4.891,4.432q2.335,2.337,4.432,4.89t3.931,5.3q1.836,2.748,3.393,5.661t2.822,5.966q1.265,3.052,2.223,6.214t1.6,6.4q.645,3.242.968,6.529t.324,6.592q0,3.3-.324,6.591t-.968,6.529q-.645,3.24-1.6,6.4t-2.223,6.214q-1.265,3.053-2.822,5.966t-3.393,5.661q-1.834,2.746-3.931,5.3t-4.432,4.89q-2.337,2.337-4.891,4.432t-5.3,3.932q-2.747,1.836-5.66,3.393t-5.967,2.821q-3.052,1.265-6.214,2.224t-6.4,1.6q-3.24.643-6.528.968t-6.592.324q-3.3,0-6.592-.324t-6.528-.968q-3.24-.645-6.4-1.6t-6.214-2.224q-3.052-1.264-5.966-2.821t-5.661-3.393q-2.747-1.836-5.3-3.932t-4.89-4.432q-2.337-2.335-4.433-4.89t-3.931-5.3q-1.836-2.747-3.393-5.661t-2.822-5.966q-1.265-3.052-2.223-6.214t-1.6-6.4q-.643-3.24-.968-6.529t-.324-6.591q0-3.3.324-6.592t.968-6.529q.645-3.24,1.6-6.4t2.223-6.214q1.265-3.051,2.822-5.966t3.393-5.661q1.836-2.747,3.931-5.3t4.433-4.89q2.336-2.336,4.89-4.432t5.3-3.931q2.746-1.836,5.661-3.393t5.966-2.822q3.053-1.265,6.214-2.224t6.4-1.6q3.24-.645,6.528-.969T2050.607,2807.371Z" fill="#6595bf"/>
    </g>
    <circle id="Elipse_12" data-name="Elipse 12" cx="63.171" cy="63.171" r="63.171" transform="translate(323.436 2804.451)" fill="#fff"/>
    <g id="Grupo_1390" data-name="Grupo 1390" transform="translate(-1664 -7)">
      <circle id="Elipse_13" data-name="Elipse 13" cx="57.466" cy="57.466" r="57.466" transform="translate(1992.592 2817.157)" fill="#aed3f2"/>
    </g>
    <g id="Grupo_1401" data-name="Grupo 1401" transform="translate(-1664 -7)">
      <circle id="Elipse_20" data-name="Elipse 20" cx="56.189" cy="56.189" r="56.189" transform="translate(1976.319 2844.028) rotate(-22.5)" fill="#8fdef6"/>
      <path id="Trazado_756" data-name="Trazado 756" d="M2105.185,2883.489l-39.865-39.868h-36.974a2.187,2.187,0,0,0-2.177,2.176v57.277a2.145,2.145,0,0,0,.639,1.538l25.933,25.933A56.2,56.2,0,0,0,2105.185,2883.489Z" fill="#70c9e9"/>
      <g id="Grupo_1400" data-name="Grupo 1400">
        <g id="Grupo_1397" data-name="Grupo 1397">
          <path id="Trazado_757" data-name="Trazado 757" d="M2073.295,2851.6v51.478a2.176,2.176,0,0,1-2.173,2.177h-42.776a2.182,2.182,0,0,1-2.177-2.177V2845.8a2.182,2.182,0,0,1,2.177-2.176h36.974Z" fill="#fff"/>
          <path id="Trazado_758" data-name="Trazado 758" d="M2073.295,2851.6h-5.8a2.176,2.176,0,0,1-2.176-2.173v-5.8Z" fill="#e6e5e5"/>
        </g>
        <g id="Grupo_1398" data-name="Grupo 1398">
          <rect id="Rectángulo_807" data-name="Rectángulo 807" width="30.136" height="2.9" transform="translate(2051.986 2889.542) rotate(-45)" fill="#fd8369"/>
          <rect id="Rectángulo_808" data-name="Rectángulo 808" width="30.135" height="2.901" transform="matrix(0.707, -0.708, 0.708, 0.707, 2054.044, 2891.6)" fill="#ea6552"/>
          <rect id="Rectángulo_809" data-name="Rectángulo 809" width="30.135" height="2.899" transform="matrix(0.708, -0.707, 0.707, 0.708, 2056.083, 2893.636)" fill="#e24f3b"/>
          <path id="Trazado_759" data-name="Trazado 759" d="M2058.141,2895.7l-5.61,1.5-2.045-2.045,1.5-5.6Z" fill="#e6e5e5"/>
          <path id="Trazado_760" data-name="Trazado 760" d="M2058.141,2895.7l-2.051-2.053-4.241,2.867.683.683Z" fill="#cccbca"/>
          <path id="Trazado_761" data-name="Trazado 761" d="M2052.531,2897.193l-2.8.75.753-2.794Z" fill="#495057"/>
          <rect id="Rectángulo_810" data-name="Rectángulo 810" width="2.899" height="2.901" transform="translate(2077.397 2872.332) rotate(-44.996)" fill="#e6e5e5"/>
          <rect id="Rectángulo_811" data-name="Rectángulo 811" width="2.9" height="5.8" transform="translate(2073.295 2868.233) rotate(-45.002)" fill="#fff"/>
          <path id="Trazado_762" data-name="Trazado 762" d="M2081.974,2871.855l-.476.476-2.053-2.051.478-.475a4.317,4.317,0,0,0,.846-4.948,4.341,4.341,0,0,1,1.205,7Z" fill="#343b43"/>
          <path id="Trazado_763" data-name="Trazado 763" d="M2079.923,2869.8l-.478.475-4.1-4.1.479-.476a2.962,2.962,0,1,1,4.1,4.1Z" fill="#495057"/>
        </g>
        <g id="Grupo_1399" data-name="Grupo 1399">
          <rect id="Rectángulo_812" data-name="Rectángulo 812" width="31.175" height="2.442" transform="translate(2034.145 2861.354)" fill="#495057"/>
          <rect id="Rectángulo_813" data-name="Rectángulo 813" width="29.927" height="2.439" transform="translate(2034.145 2871.112)" fill="#495057"/>
          <rect id="Rectángulo_814" data-name="Rectángulo 814" width="31.175" height="2.439" transform="translate(2034.145 2866.234)" fill="#495057"/>
          <rect id="Rectángulo_815" data-name="Rectángulo 815" width="15.589" height="2.442" transform="translate(2034.145 2851.596)" fill="#ea6552"/>
          <rect id="Rectángulo_816" data-name="Rectángulo 816" width="31.175" height="2.439" transform="translate(2034.145 2856.477)" fill="#495057"/>
          <rect id="Rectángulo_817" data-name="Rectángulo 817" width="5.534" height="2.439" transform="translate(2034.145 2895.504)" fill="#495057"/>
          <rect id="Rectángulo_818" data-name="Rectángulo 818" width="25.049" height="2.439" transform="translate(2034.145 2875.989)" fill="#495057"/>
          <rect id="Rectángulo_819" data-name="Rectángulo 819" width="10.411" height="2.442" transform="translate(2034.145 2890.624)" fill="#495057"/>
          <rect id="Rectángulo_820" data-name="Rectángulo 820" width="20.169" height="2.442" transform="translate(2034.145 2880.866)" fill="#495057"/>
          <rect id="Rectángulo_821" data-name="Rectángulo 821" width="15.292" height="2.439" transform="translate(2034.145 2885.747)" fill="#495057"/>
        </g>
      </g>
    </g>
  </g>
</svg>
