<svg xmlns="http://www.w3.org/2000/svg" width="135.396" height="135.191" viewBox="0 0 135.396 135.191">
  <g id="Grupo_3022" data-name="Grupo 3022" transform="translate(-318.463 -3114.027)">
    <g id="Grupo_1393" data-name="Grupo 1393" transform="translate(-1664 -7)">
      <path id="Trazado_754" data-name="Trazado 754" d="M2050.607,3121.371q3.3,0,6.592.323t6.528.969q3.241.645,6.4,1.6t6.214,2.224q3.052,1.265,5.967,2.822t5.66,3.393q2.748,1.834,5.3,3.931t4.891,4.432q2.335,2.337,4.432,4.89t3.931,5.3q1.836,2.748,3.393,5.661t2.822,5.966q1.265,3.052,2.223,6.214t1.6,6.4q.645,3.242.968,6.529t.324,6.592q0,3.3-.324,6.591t-.968,6.529q-.645,3.24-1.6,6.4t-2.223,6.214q-1.265,3.053-2.822,5.966t-3.393,5.661q-1.834,2.746-3.931,5.3t-4.432,4.89q-2.337,2.337-4.891,4.432t-5.3,3.932q-2.747,1.836-5.66,3.393t-5.967,2.821q-3.052,1.265-6.214,2.224t-6.4,1.6q-3.24.643-6.528.968t-6.592.324q-3.3,0-6.592-.324t-6.528-.968q-3.24-.645-6.4-1.6t-6.214-2.224q-3.052-1.264-5.966-2.821t-5.661-3.393q-2.747-1.836-5.3-3.932t-4.89-4.432q-2.337-2.335-4.433-4.89t-3.931-5.3q-1.836-2.747-3.393-5.661t-2.822-5.966q-1.265-3.052-2.223-6.214t-1.6-6.4q-.643-3.24-.968-6.529t-.324-6.591q0-3.3.324-6.592t.968-6.529q.645-3.24,1.6-6.4t2.223-6.214q1.265-3.051,2.822-5.966t3.393-5.661q1.836-2.747,3.931-5.3t4.433-4.89q2.336-2.336,4.89-4.432t5.3-3.931q2.746-1.836,5.661-3.393t5.966-2.822q3.053-1.265,6.214-2.224t6.4-1.6q3.24-.645,6.528-.969T2050.607,3121.371Z" fill="#6595bf"/>
    </g>
    <circle id="Elipse_16" data-name="Elipse 16" cx="63.171" cy="63.171" r="63.171" transform="translate(323.436 3118.451)" fill="#fff"/>
    <g id="Grupo_1394" data-name="Grupo 1394" transform="translate(-1664 -7)">
      <circle id="Elipse_17" data-name="Elipse 17" cx="57.466" cy="57.466" r="57.466" transform="translate(1992.592 3131.157)" fill="#aed3f2"/>
    </g>
    <g id="Grupo_1427" data-name="Grupo 1427" transform="translate(-1664 -7)">
      <circle id="Elipse_22" data-name="Elipse 22" cx="56.189" cy="56.189" r="56.189" transform="translate(1982.463 3230.399) rotate(-76.717)" fill="#8fdef6"/>
      <path id="Trazado_780" data-name="Trazado 780" d="M2103.012,3207.435l-53.365-53.362-2.016,1.33-3.033-3.034-1.3,2.6,1.191,1.19c-.181-.014-.362-.026-.543-.026a6.445,6.445,0,0,0-1.639.219l-2.929-2.929.169,2.9.863.863a6.575,6.575,0,0,0-1.919,1.92l-.861-.861-2.9-.175,2.932,2.932a6.485,6.485,0,0,0-.216,1.642c0,.187.02.368.035.551l-1.2-1.2-2.6,1.3,3.375,3.378-1.675,1.671,5.067,5.067v15.181a17.607,17.607,0,0,0-10.664-3.591,3.512,3.512,0,0,0-2.728,5.714.05.05,0,0,1,.021.027l.478.472,12.31,12.308a2.055,2.055,0,0,0-.4,1.207v18.1a2.048,2.048,0,0,0,.6,1.447l19.691,19.69A56.254,56.254,0,0,0,2103.012,3207.435Z" fill="#70c9e9"/>
      <g id="Grupo_1422" data-name="Grupo 1422">
        <g id="Grupo_1420" data-name="Grupo 1420">
          <path id="Trazado_781" data-name="Trazado 781" d="M2066.288,3153.5v46.1a1.95,1.95,0,0,1-1.946,1.948H2026.03a1.953,1.953,0,0,1-1.949-1.948v-51.3a1.953,1.953,0,0,1,1.949-1.949h33.115Z" fill="#399eb5"/>
          <path id="Trazado_782" data-name="Trazado 782" d="M2066.288,3153.5h-5.194a1.95,1.95,0,0,1-1.949-1.947v-5.2Z" fill="#e6e5e5"/>
        </g>
        <rect id="Rectángulo_835" data-name="Rectángulo 835" width="13.232" height="13.232" transform="translate(2038.64 3155.269)" fill="#fd8369"/>
        <g id="Grupo_1421" data-name="Grupo 1421">
          <path id="Trazado_783" data-name="Trazado 783" d="M2043.941,3157.962l.769,1.3c.225.4.434.8.643,1.171h.031c.209-.418.4-.819.61-1.2l.69-1.268h2.646l-2.582,3.738,2.615,4.108h-2.76l-.785-1.413c-.225-.384-.418-.786-.61-1.187h-.049c-.192.418-.4.8-.593,1.187l-.738,1.413h-2.679l2.664-4-2.6-3.851Z" fill="#fff"/>
        </g>
      </g>
      <g id="Grupo_1426" data-name="Grupo 1426">
        <g id="Grupo_1424" data-name="Grupo 1424">
          <path id="Trazado_784" data-name="Trazado 784" d="M2050.847,3176.538a5.825,5.825,0,1,1-5.829-5.826A5.826,5.826,0,0,1,2050.847,3176.538Z" fill="#495057"/>
          <g id="Grupo_1423" data-name="Grupo 1423">
            <rect id="Rectángulo_836" data-name="Rectángulo 836" width="1.163" height="2.328" transform="translate(2044.438 3167.337)" fill="#fff"/>
            <path id="Trazado_785" data-name="Trazado 785" d="M2041.078,3170.877l-1.16-2.014,1.009-.583,1.16,2.014Z" fill="#fff"/>
            <rect id="Rectángulo_837" data-name="Rectángulo 837" width="1.165" height="2.328" transform="translate(2036.763 3172.442) rotate(-59.987)" fill="#fff"/>
            <rect id="Rectángulo_838" data-name="Rectángulo 838" width="2.328" height="1.163" transform="translate(2035.822 3175.956)" fill="#fff"/>
            <rect id="Rectángulo_839" data-name="Rectángulo 839" width="2.327" height="1.164" transform="matrix(0.867, -0.499, 0.499, 0.867, 2036.764, 3180.631)" fill="#fff"/>
            <rect id="Rectángulo_840" data-name="Rectángulo 840" width="1.163" height="2.328" transform="matrix(0.499, -0.866, 0.866, 0.499, 2050.682, 3180.478)" fill="#fff"/>
            <rect id="Rectángulo_841" data-name="Rectángulo 841" width="2.328" height="1.163" transform="translate(2051.895 3175.956)" fill="#fff"/>
            <rect id="Rectángulo_842" data-name="Rectángulo 842" width="2.328" height="1.164" transform="matrix(0.867, -0.499, 0.499, 0.867, 2050.681, 3172.596)" fill="#fff"/>
            <rect id="Rectángulo_843" data-name="Rectángulo 843" width="2.324" height="1.163" transform="matrix(0.5, -0.866, 0.866, 0.5, 2047.955, 3170.294)" fill="#fff"/>
          </g>
        </g>
        <g id="Grupo_1425" data-name="Grupo 1425">
          <path id="Trazado_786" data-name="Trazado 786" d="M2066.1,3186.521a3.139,3.139,0,0,0-4.444,0,3.124,3.124,0,0,0-.923,2.224h0a3.142,3.142,0,0,0-6.285,0v0a3.141,3.141,0,1,0-6.281,0v-12.2a3.143,3.143,0,0,0-6.286,0v36.123h25.136v-23.916A3.143,3.143,0,0,0,2066.1,3186.521Z" fill="#fff"/>
          <path id="Trazado_787" data-name="Trazado 787" d="M2045.018,3215.532a3.142,3.142,0,0,1-3.14-3.143,9.556,9.556,0,0,0-9.547-9.544,3.143,3.143,0,0,1,0-6.286,15.848,15.848,0,0,1,15.833,15.83A3.142,3.142,0,0,1,2045.018,3215.532Z" fill="#fff"/>
          <path id="Trazado_788" data-name="Trazado 788" d="M2066.055,3232.273a1.84,1.84,0,0,0,1.842-1.839v-16.206a1.837,1.837,0,0,0-1.842-1.839h-23.218a1.84,1.84,0,0,0-1.839,1.839v16.206a1.844,1.844,0,0,0,1.839,1.839Z" fill="#343b43"/>
          <path id="Trazado_789" data-name="Trazado 789" d="M2063.152,3215.979a1.46,1.46,0,1,1-1.46,1.46A1.46,1.46,0,0,1,2063.152,3215.979Z" fill="#fff"/>
        </g>
      </g>
    </g>
  </g>
</svg>
