<svg xmlns="http://www.w3.org/2000/svg" width="228.221" height="228.218" viewBox="0 0 228.221 228.218">
  <g id="Grupo_3018" data-name="Grupo 3018" transform="translate(-382.933 -9926.546)">
    <g id="Grupo_2913" data-name="Grupo 2913" transform="translate(-17 -45)">
      <path id="Trazado_1532" data-name="Trazado 1532" d="M628.154,10085.657a114.11,114.11,0,1,1-114.11-114.111A114.111,114.111,0,0,1,628.154,10085.657Z" fill="#00c2db"/>
    </g>
    <g id="Grupo_3010" data-name="Grupo 3010" transform="translate(-17 -45)">
      <g id="Grupo_2974" data-name="Grupo 2974">
        <g id="Grupo_2973" data-name="Grupo 2973">
          <g id="Grupo_2972" data-name="Grupo 2972">
            <circle id="Elipse_67" data-name="Elipse 67" cx="68.089" cy="68.089" r="68.089" transform="translate(444.809 10018.262)" fill="#70eaed"/>
          </g>
        </g>
      </g>
      <g id="Grupo_2975" data-name="Grupo 2975">
        <path id="Trazado_1931" data-name="Trazado 1931" d="M564.079,10011.753a1.311,1.311,0,0,1-.733-.224c-2.463-1.665-5.037-3.225-7.65-4.635a1.311,1.311,0,1,1,1.246-2.307c2.688,1.452,5.337,3.056,7.872,4.769a1.311,1.311,0,0,1-.735,2.4Zm-15.95-8.608a1.3,1.3,0,0,1-.5-.1c-2.742-1.145-5.573-2.163-8.414-3.028a1.311,1.311,0,1,1,.764-2.508c2.924.891,5.837,1.938,8.66,3.116a1.311,1.311,0,0,1-.506,2.521Zm-62.211-2.984a1.311,1.311,0,0,1-.385-2.563c2.921-.9,5.923-1.663,8.922-2.267a1.311,1.311,0,0,1,.518,2.57c-2.913.587-5.83,1.327-8.669,2.2A1.291,1.291,0,0,1,485.918,10000.16Zm44.876-2.292a1.279,1.279,0,0,1-.256-.025c-2.909-.577-5.886-1.014-8.847-1.3a1.311,1.311,0,0,1,.253-2.609c3.046.295,6.109.745,9.1,1.339a1.311,1.311,0,0,1-.253,2.6Zm-27.107-1.291a1.311,1.311,0,0,1-.129-2.615c3.035-.3,6.128-.459,9.193-.464h0a1.311,1.311,0,0,1,0,2.621c-2.98,0-5.986.157-8.936.451A1.2,1.2,0,0,1,503.687,9996.577Z" fill="#1d6487"/>
      </g>
      <g id="Grupo_2976" data-name="Grupo 2976">
        <path id="Trazado_1932" data-name="Trazado 1932" d="M532.008,10177.206a1.311,1.311,0,0,1-.271-2.593c2.909-.618,5.818-1.39,8.649-2.294a1.311,1.311,0,0,1,.8,2.5c-2.913.93-5.908,1.725-8.9,2.359A1.258,1.258,0,0,1,532.008,10177.206Zm17.275-5.518a1.311,1.311,0,0,1-.522-2.514c2.724-1.181,5.422-2.515,8.02-3.964a1.311,1.311,0,0,1,1.277,2.29c-2.674,1.491-5.451,2.863-8.254,4.079A1.315,1.315,0,0,1,549.283,10171.688Zm15.835-8.829a1.311,1.311,0,0,1-.75-2.387c2.438-1.7,4.821-3.534,7.082-5.465a1.31,1.31,0,0,1,1.7,1.993c-2.327,1.987-4.778,3.878-7.287,5.624A1.307,1.307,0,0,1,565.118,10162.859Zm13.785-11.769a1.311,1.311,0,0,1-.945-2.219c2.06-2.142,4.035-4.412,5.873-6.745a1.311,1.311,0,0,1,2.06,1.622c-1.891,2.4-3.924,4.735-6.043,6.94A1.31,1.31,0,0,1,578.9,10151.091Zm11.21-14.238a1.31,1.31,0,0,1-1.1-2.016c1.6-2.5,3.09-5.117,4.431-7.765a1.311,1.311,0,1,1,2.339,1.185c-1.38,2.725-2.915,5.413-4.56,7.991A1.312,1.312,0,0,1,590.113,10136.853Zm8.187-16.159a1.3,1.3,0,0,1-.473-.09,1.311,1.311,0,0,1-.75-1.7c1.073-2.771,2.017-5.627,2.808-8.49a1.311,1.311,0,1,1,2.527.7c-.814,2.947-1.786,5.887-2.89,8.739A1.312,1.312,0,0,1,598.3,10120.693Zm4.825-17.472a1.331,1.331,0,0,1-.223-.019,1.31,1.31,0,0,1-1.071-1.513c.5-2.923.861-5.909,1.071-8.879a1.311,1.311,0,1,1,2.615.186c-.216,3.055-.587,6.128-1.1,9.136A1.31,1.31,0,0,1,603.125,10103.222Z" fill="#1d6487"/>
      </g>
      <g id="Grupo_2977" data-name="Grupo 2977">
        <path id="Trazado_1933" data-name="Trazado 1933" d="M450.913,10155.026a1.305,1.305,0,0,1-.888-.348c-2.249-2.069-4.421-4.276-6.456-6.559a1.311,1.311,0,0,1,1.957-1.745c1.978,2.218,4.089,4.363,6.275,6.376a1.311,1.311,0,0,1-.888,2.275Zm-12.062-13.531a1.306,1.306,0,0,1-1.06-.539c-1.8-2.473-3.5-5.064-5.044-7.7a1.311,1.311,0,1,1,2.261-1.326c1.5,2.562,3.151,5.078,4.9,7.482a1.31,1.31,0,0,1-1.059,2.082Zm-9.169-15.636a1.313,1.313,0,0,1-1.192-.765c-1.278-2.779-2.43-5.654-3.424-8.546a1.311,1.311,0,1,1,2.48-.852c.965,2.808,2.084,5.6,3.326,8.3a1.311,1.311,0,0,1-.644,1.738A1.3,1.3,0,0,1,429.682,10125.859Zm-5.9-17.145a1.313,1.313,0,0,1-1.275-1.01c-.7-2.974-1.258-6.021-1.659-9.055a1.31,1.31,0,1,1,2.6-.345c.391,2.949.933,5.909,1.613,8.8a1.311,1.311,0,0,1-.975,1.576A1.281,1.281,0,0,1,423.787,10108.715Z" fill="#1d6487"/>
      </g>
      <g id="Grupo_2988" data-name="Grupo 2988">
        <g id="Grupo_2986" data-name="Grupo 2986">
          <g id="Grupo_2985" data-name="Grupo 2985">
            <g id="Grupo_2978" data-name="Grupo 2978">
              <path id="Trazado_1934" data-name="Trazado 1934" d="M479.93,10013.364a2.6,2.6,0,0,0-3.182-3.241l-25.989,6.67-5.7,1.612c-7.545,2.136-12.753,9.7-12.753,17.543l0,14.677H450.76c0-13.732,0-18.512,0-23.063a6.287,6.287,0,0,1,4.576-6.049l22.984-6.5A2.285,2.285,0,0,0,479.93,10013.364Z" fill="#fff"/>
              <path id="Trazado_1935" data-name="Trazado 1935" d="M450.76,10051.76H432.308a1.135,1.135,0,0,1-1.135-1.135l0-14.677c0-8.57,5.711-16.408,13.578-18.635l5.7-1.612.026-.007,25.978-6.667a3.718,3.718,0,0,1,3.56.9,3.829,3.829,0,0,1,1.02,3.7,3.421,3.421,0,0,1-2.406,2.481l-22.985,6.5a5.17,5.17,0,0,0-3.75,4.956v5.817c0,3.706,0,8.771,0,17.246A1.135,1.135,0,0,1,450.76,10051.76Zm-17.317-2.269h16.183c0-7.8,0-12.574,0-16.112v-5.817a7.449,7.449,0,0,1,5.4-7.141l22.984-6.5a1.149,1.149,0,0,0,.817-.825h0a1.53,1.53,0,0,0-.385-1.538,1.425,1.425,0,0,0-1.385-.347l-.027.007-25.976,6.667-5.681,1.608c-6.911,1.956-11.927,8.875-11.927,16.451Z" fill="#1d6487"/>
            </g>
            <g id="Grupo_2979" data-name="Grupo 2979">
              <path id="Trazado_1936" data-name="Trazado 1936" d="M518.778,10049.5a2.1,2.1,0,0,1-1.835,2.279H496.4c-3.174,0-5.648.13-7.372,1l-38.266,21.171v9.116H432.311v-32.437h18.448v6.5c21.145-7.687,13.135-4.771,34.75-12.64a27.137,27.137,0,0,1,9.3-1.643h16.439C515.909,10042.844,518.778,10047.668,518.778,10049.5Z" fill="#fff"/>
              <path id="Trazado_1937" data-name="Trazado 1937" d="M450.759,10084.2H432.311a1.135,1.135,0,0,1-1.135-1.135v-32.438a1.135,1.135,0,0,1,1.135-1.135h18.448a1.134,1.134,0,0,1,1.134,1.135v4.883l11.7-4.254c5.822-2.116,6.79-2.468,21.525-7.832a28.182,28.182,0,0,1,9.692-1.71h16.439c5.389,0,8.661,5.407,8.661,7.786a3.219,3.219,0,0,1-2.97,3.414H496.4c-3.148,0-5.393.146-6.843.867l-37.661,20.836v8.448A1.134,1.134,0,0,1,450.759,10084.2Zm-17.313-2.27h16.178v-7.982a1.135,1.135,0,0,1,.585-.993l38.266-21.171.039-.021c1.859-.937,4.3-1.12,7.883-1.12h20.546c.367,0,.7-.545.7-1.144,0-1.181-2.327-5.518-6.392-5.518H494.813a25.946,25.946,0,0,0-8.915,1.573c-14.736,5.365-15.7,5.717-21.526,7.833l-13.226,4.808a1.136,1.136,0,0,1-1.522-1.066v-5.369H433.446Z" fill="#1d6487"/>
            </g>
            <g id="Grupo_2980" data-name="Grupo 2980">
              <rect id="Rectángulo_1764" data-name="Rectángulo 1764" width="21.204" height="4.075" rx="1.979" transform="translate(430.932 10083.063)" fill="#fff"/>
              <path id="Trazado_1938" data-name="Trazado 1938" d="M450.8,10088.272H432.271a2.477,2.477,0,0,1-2.474-2.475v-1.4a2.477,2.477,0,0,1,2.474-2.475H450.8a2.477,2.477,0,0,1,2.474,2.475v1.4A2.477,2.477,0,0,1,450.8,10088.272Zm-18.526-4.075a.2.2,0,0,0-.2.205v1.4a.2.2,0,0,0,.2.205H450.8a.205.205,0,0,0,.205-.205v-1.4a.205.205,0,0,0-.205-.205Z" fill="#1d6487"/>
            </g>
            <g id="Grupo_2981" data-name="Grupo 2981">
              <path id="Trazado_1939" data-name="Trazado 1939" d="M450.759,10038.254a4.186,4.186,0,1,1,0-8.371Z" fill="#fff"/>
              <path id="Trazado_1940" data-name="Trazado 1940" d="M450.759,10039.388a5.32,5.32,0,1,1,0-10.64,1.134,1.134,0,0,1,1.134,1.135v8.371A1.134,1.134,0,0,1,450.759,10039.388Zm-1.135-8.15a3.05,3.05,0,0,0,0,5.663Z" fill="#1d6487"/>
            </g>
            <g id="Grupo_2983" data-name="Grupo 2983">
              <g id="Grupo_2982" data-name="Grupo 2982">
                <path id="Trazado_1941" data-name="Trazado 1941" d="M514.516,10051.775v1.752a2.49,2.49,0,0,1-2.71,2.169h-7.818a2.482,2.482,0,0,1-2.7-2.169v-1.752Z" fill="#fff"/>
                <path id="Trazado_1942" data-name="Trazado 1942" d="M511.806,10056.831h-7.818a3.605,3.605,0,0,1-3.837-3.3v-1.751a1.136,1.136,0,0,1,1.135-1.136h13.23a1.135,1.135,0,0,1,1.135,1.136v1.751A3.61,3.61,0,0,1,511.806,10056.831Zm-9.385-3.921v.616c0,.489.644,1.035,1.567,1.035h7.818c.928,0,1.575-.546,1.575-1.035v-.616Z" fill="#1d6487"/>
              </g>
            </g>
            <g id="Grupo_2984" data-name="Grupo 2984">
              <line id="Línea_31" data-name="Línea 31" y2="19.317" transform="translate(437.327 10056.929)" fill="#fff"/>
              <path id="Trazado_1943" data-name="Trazado 1943" d="M437.327,10077.38a1.135,1.135,0,0,1-1.135-1.135v-19.317a1.135,1.135,0,0,1,2.27,0v19.317A1.135,1.135,0,0,1,437.327,10077.38Z" fill="#1d6487"/>
            </g>
          </g>
        </g>
        <g id="Grupo_2987" data-name="Grupo 2987">
          <path id="Trazado_1944" data-name="Trazado 1944" d="M516.84,10078.642a8.5,8.5,0,1,1-16.99,0c0-4.69,8.495-15.549,8.495-15.549S516.84,10073.951,516.84,10078.642Z" fill="#c5fbfc"/>
          <path id="Trazado_1945" data-name="Trazado 1945" d="M508.345,10088.272a9.641,9.641,0,0,1-9.63-9.631c0-4.939,7.842-15.105,8.736-16.249a1.137,1.137,0,0,1,1.788,0c.894,1.144,8.736,11.31,8.736,16.249A9.641,9.641,0,0,1,508.345,10088.272Zm0-23.307c-2.66,3.576-7.36,10.545-7.36,13.676a7.36,7.36,0,1,0,14.72,0C515.705,10075.511,511.005,10068.542,508.345,10064.966Z" fill="#1d6487"/>
        </g>
      </g>
      <g id="Grupo_3004" data-name="Grupo 3004">
        <g id="Grupo_2989" data-name="Grupo 2989">
          <path id="Trazado_1946" data-name="Trazado 1946" d="M577.025,10128.3v2.806c0,1.864-1.042,3.374-2.326,3.374h-5.435c-1.285,0-2.327-1.51-2.327-3.374v-2.806" fill="#fff"/>
          <path id="Trazado_1947" data-name="Trazado 1947" d="M574.7,10135.612h-5.435c-1.941,0-3.461-1.98-3.461-4.51v-2.806a1.135,1.135,0,1,1,2.269,0v2.806c0,1.262.641,2.24,1.192,2.24H574.7c.55,0,1.191-.979,1.191-2.24v-2.806a1.135,1.135,0,0,1,2.27,0v2.806C578.16,10133.632,576.639,10135.612,574.7,10135.612Z" fill="#1d6487"/>
        </g>
        <g id="Grupo_2990" data-name="Grupo 2990">
          <path id="Trazado_1948" data-name="Trazado 1948" d="M581.843,10112.667s3.864-1.784,5.071-10.819a34.679,34.679,0,0,1,4.457-13.144c.236-.4.465-.778.684-1.137a65,65,0,0,1,4.132-5.83,31.2,31.2,0,0,0,6.408-20.006A30.63,30.63,0,1,0,548,10081.822a47.035,47.035,0,0,1,3.05,4.362c.116.187.24.388.369.6a44.823,44.823,0,0,1,5.77,16.037c1.343,8.188,4.926,9.844,4.926,9.844" fill="#fff"/>
          <path id="Trazado_1949" data-name="Trazado 1949" d="M582.319,10113.7l-.952-2.062-.019.011c.033-.018,3.352-1.8,4.441-9.948a35.673,35.673,0,0,1,4.606-13.573c.238-.4.47-.787.691-1.149a66.886,66.886,0,0,1,4.2-5.933,30.044,30.044,0,0,0,6.172-19.277,29.495,29.495,0,0,0-58.974.942,29.7,29.7,0,0,0,6.405,18.408,47.806,47.806,0,0,1,3.124,4.468c.119.19.245.4.378.614a45.817,45.817,0,0,1,5.919,16.44c1.205,7.351,4.27,8.991,4.3,9.008l-.019-.011-.952,2.062c-.422-.2-4.169-2.153-5.57-10.691a43.571,43.571,0,0,0-5.62-15.631c-.127-.21-.248-.407-.362-.589a45.661,45.661,0,0,0-2.975-4.258,31.974,31.974,0,0,1-6.9-19.82,31.764,31.764,0,0,1,30.5-31.739,31.247,31.247,0,0,1,12.483,2.062,32.022,32.022,0,0,1,10.411,6.515,31.439,31.439,0,0,1,10.122,22.152,32.329,32.329,0,0,1-6.645,20.734,64.475,64.475,0,0,0-4.062,5.728c-.216.354-.443.73-.676,1.124a33.421,33.421,0,0,0-4.308,12.716C586.763,10111.542,582.5,10113.613,582.319,10113.7Z" fill="#1d6487"/>
        </g>
        <g id="Grupo_2991" data-name="Grupo 2991">
          <path id="Rectángulo_1765" data-name="Rectángulo 1765" d="M0,0H21.74a0,0,0,0,1,0,0V6.262a9,9,0,0,1-9,9h-.621A12.124,12.124,0,0,1,0,3.133V0A0,0,0,0,1,0,0Z" transform="translate(561.111 10112.667)" fill="#c5fbfc"/>
          <path id="Trazado_1950" data-name="Trazado 1950" d="M580.789,10129.058h-16.9a3.919,3.919,0,0,1-3.915-3.914v-12.477a1.135,1.135,0,0,1,1.135-1.135h21.74a1.135,1.135,0,0,1,1.135,1.135v13.194A3.2,3.2,0,0,1,580.789,10129.058Zm-18.543-15.257v11.343a1.647,1.647,0,0,0,1.645,1.646h16.9a.928.928,0,0,0,.927-.928V10113.8Z" fill="#1d6487"/>
        </g>
        <g id="Grupo_2992" data-name="Grupo 2992">
          <line id="Línea_32" data-name="Línea 32" x2="21.74" transform="translate(561.111 10120.265)" fill="#fff"/>
          <path id="Trazado_1951" data-name="Trazado 1951" d="M582.851,10121.4h-21.74a1.135,1.135,0,1,1,0-2.27h21.74a1.135,1.135,0,1,1,0,2.27Z" fill="#1d6487"/>
        </g>
        <g id="Grupo_2993" data-name="Grupo 2993">
          <path id="Trazado_1952" data-name="Trazado 1952" d="M562.82,10090.655l5.179,8.007,1.419,14" fill="#fff"/>
          <path id="Trazado_1953" data-name="Trazado 1953" d="M569.417,10113.8a1.134,1.134,0,0,1-1.128-1.021l-1.392-13.733-5.03-7.776a1.134,1.134,0,1,1,1.9-1.232l5.18,8.006a1.148,1.148,0,0,1,.176.5l1.419,14a1.135,1.135,0,0,1-1.015,1.244A1.148,1.148,0,0,1,569.417,10113.8Z" fill="#1d6487"/>
        </g>
        <g id="Grupo_2994" data-name="Grupo 2994">
          <path id="Trazado_1954" data-name="Trazado 1954" d="M581.3,10090.655l-5.179,8.007-1.419,14" fill="#fff"/>
          <path id="Trazado_1955" data-name="Trazado 1955" d="M574.7,10113.8c-.038,0-.077,0-.116-.006a1.135,1.135,0,0,1-1.014-1.244l1.419-14a1.135,1.135,0,0,1,.176-.5l5.179-8.006a1.135,1.135,0,1,1,1.906,1.232l-5.031,7.776-1.391,13.733A1.136,1.136,0,0,1,574.7,10113.8Z" fill="#1d6487"/>
        </g>
        <g id="Grupo_3002" data-name="Grupo 3002">
          <g id="Grupo_2995" data-name="Grupo 2995">
            <line id="Línea_33" data-name="Línea 33" y1="4.105" x2="8.622" transform="translate(604.181 10040.063)" fill="#fff"/>
            <path id="Trazado_1956" data-name="Trazado 1956" d="M604.182,10045.3a1.135,1.135,0,0,1-.489-2.16l8.622-4.1a1.135,1.135,0,1,1,.976,2.049l-8.622,4.105A1.145,1.145,0,0,1,604.182,10045.3Z" fill="#1d6487"/>
          </g>
          <g id="Grupo_2996" data-name="Grupo 2996">
            <line id="Línea_34" data-name="Línea 34" x2="5.758" transform="translate(608.595 10061.161)" fill="#fff"/>
            <path id="Trazado_1957" data-name="Trazado 1957" d="M614.353,10062.3h-5.758a1.135,1.135,0,1,1,0-2.27h5.758a1.135,1.135,0,1,1,0,2.27Z" fill="#1d6487"/>
          </g>
          <g id="Grupo_2997" data-name="Grupo 2997">
            <line id="Línea_35" data-name="Línea 35" y1="4.761" x2="3.24" transform="translate(592.338 10026.763)" fill="#fff"/>
            <path id="Trazado_1958" data-name="Trazado 1958" d="M592.337,10032.658a1.135,1.135,0,0,1-.937-1.773l3.239-4.761a1.135,1.135,0,0,1,1.877,1.277l-3.24,4.761A1.131,1.131,0,0,1,592.337,10032.658Z" fill="#1d6487"/>
          </g>
          <g id="Grupo_2998" data-name="Grupo 2998">
            <line id="Línea_36" data-name="Línea 36" x1="8.622" y1="4.105" transform="translate(531.159 10040.063)" fill="#fff"/>
            <path id="Trazado_1959" data-name="Trazado 1959" d="M539.78,10045.3a1.144,1.144,0,0,1-.487-.11l-8.622-4.105a1.135,1.135,0,1,1,.976-2.049l8.622,4.1a1.135,1.135,0,0,1-.489,2.16Z" fill="#1d6487"/>
          </g>
          <g id="Grupo_2999" data-name="Grupo 2999">
            <line id="Línea_37" data-name="Línea 37" x1="5.758" transform="translate(529.609 10061.161)" fill="#fff"/>
            <path id="Trazado_1960" data-name="Trazado 1960" d="M535.367,10062.3h-5.758a1.135,1.135,0,1,1,0-2.27h5.758a1.135,1.135,0,1,1,0,2.27Z" fill="#1d6487"/>
          </g>
          <g id="Grupo_3000" data-name="Grupo 3000">
            <line id="Línea_38" data-name="Línea 38" x1="3.24" y1="4.761" transform="translate(548.384 10026.763)" fill="#fff"/>
            <path id="Trazado_1961" data-name="Trazado 1961" d="M551.625,10032.658a1.131,1.131,0,0,1-.939-.5l-3.24-4.761a1.135,1.135,0,0,1,1.877-1.277l3.239,4.761a1.135,1.135,0,0,1-.937,1.773Z" fill="#1d6487"/>
          </g>
          <g id="Grupo_3001" data-name="Grupo 3001">
            <line id="Línea_39" data-name="Línea 39" y1="5.039" transform="translate(572.464 10021.526)" fill="#fff"/>
            <path id="Trazado_1962" data-name="Trazado 1962" d="M572.464,10027.7a1.134,1.134,0,0,1-1.134-1.135v-5.039a1.134,1.134,0,1,1,2.269,0v5.039A1.135,1.135,0,0,1,572.464,10027.7Z" fill="#1d6487"/>
          </g>
        </g>
        <g id="Grupo_3003" data-name="Grupo 3003">
          <path id="Trazado_1963" data-name="Trazado 1963" d="M572.036,10062.841l-.161-18.578-11.063,26.3,11.114-3.034.161,18.577,11.063-26.3Z" fill="#c5fbfc"/>
          <path id="Trazado_1964" data-name="Trazado 1964" d="M572.087,10087.238a1.135,1.135,0,0,1-1.135-1.125l-.148-17.1-9.693,2.647a1.136,1.136,0,0,1-1.345-1.535l11.063-26.3a1.135,1.135,0,0,1,2.181.43l.148,17.105,9.693-2.647a1.135,1.135,0,0,1,1.345,1.535l-11.063,26.3A1.136,1.136,0,0,1,572.087,10087.238Zm-.161-20.848a1.136,1.136,0,0,1,1.135,1.125l.113,13.077,8.026-19.079-8.865,2.421a1.134,1.134,0,0,1-1.434-1.085l-.113-13.075-8.026,19.077,8.865-2.421A1.16,1.16,0,0,1,571.926,10066.391Z" fill="#1d6487"/>
        </g>
      </g>
      <g id="Grupo_3009" data-name="Grupo 3009">
        <g id="Grupo_3005" data-name="Grupo 3005">
          <circle id="Elipse_68" data-name="Elipse 68" cx="39.593" cy="39.593" r="39.593" transform="translate(458.998 10099.803)" fill="#fff"/>
          <path id="Trazado_1965" data-name="Trazado 1965" d="M498.59,10180.123a40.728,40.728,0,1,1,28.8-11.929A40.464,40.464,0,0,1,498.59,10180.123Zm0-79.187a38.458,38.458,0,1,0,38.458,38.458A38.5,38.5,0,0,0,498.59,10100.937Z" fill="#1d6487"/>
        </g>
        <g id="Grupo_3008" data-name="Grupo 3008">
          <g id="Grupo_3006" data-name="Grupo 3006">
            <path id="Trazado_1966" data-name="Trazado 1966" d="M506.623,10165.641c6.237-1.877,10.615-6.387,11.508-12.919.654-4.789-2.469-9.6-2.469-9.6-4.589-5.618.173-15.468.173-15.468-10.6,3.162-10.967,9-10.967,9-11.218-5.851-5.324-24.072-5.324-24.072-14.451,5.94-8.841,22.095-8.841,22.095,3.15,6.9-2.1,8.869-2.1,8.869-4.269-.5-2.253-10.5-2.253-10.5-6.675,2.94-7.067,14.2-7.067,14.2-.573,8.095,5.3,15.936,13.817,18.489" fill="#c5fbfc"/>
            <path id="Trazado_1967" data-name="Trazado 1967" d="M493.1,10166.867a1.153,1.153,0,0,1-.327-.048,21.326,21.326,0,0,1-10.9-7.574,18.151,18.151,0,0,1-3.724-12.063c.029-.732.583-12.02,7.743-15.174a1.135,1.135,0,0,1,1.57,1.264c-.492,2.45-.83,6.95.359,8.588a1.284,1.284,0,0,0,.64.5,4.05,4.05,0,0,0,1.813-2.009c.551-1.367.348-3.117-.6-5.2-.015-.033-.028-.066-.04-.1a24.8,24.8,0,0,1-1.057-9.288,16.107,16.107,0,0,1,10.538-14.229,1.133,1.133,0,0,1,1.511,1.4,36.72,36.72,0,0,0-1.49,9.559c-.068,5.864,1.626,10.034,5.04,12.42.877-2.189,3.5-6.007,11.338-8.343a1.135,1.135,0,0,1,1.346,1.581c-.044.092-4.389,9.27-.317,14.256a.8.8,0,0,1,.073.1c.137.211,3.346,5.225,2.642,10.372-.919,6.727-5.4,11.776-12.3,13.853a1.135,1.135,0,1,1-.654-2.174c6.1-1.836,9.9-6.093,10.71-11.985.559-4.09-1.97-8.306-2.268-8.785-3.525-4.385-2.061-10.812-.875-14.253a15.085,15.085,0,0,0-6.467,4.346,6.12,6.12,0,0,0-1.395,2.856,1.109,1.109,0,0,1-.562.918,1.136,1.136,0,0,1-1.1.01c-4.992-2.6-7.579-7.877-7.479-15.251a38.2,38.2,0,0,1,.952-7.727,13.549,13.549,0,0,0-6.976,11.2,22.942,22.942,0,0,0,.92,8.379c1.208,2.672,1.409,5.022.6,6.985a6.366,6.366,0,0,1-3.358,3.361,1.127,1.127,0,0,1-.53.064,3.525,3.525,0,0,1-2.488-1.481c-1.4-1.934-1.36-5.419-1.118-7.827-4.1,3.745-4.445,11.827-4.448,11.92l0,.039c-.539,7.616,4.933,14.9,13.011,17.321a1.135,1.135,0,0,1-.325,2.223Z" fill="#1d6487"/>
          </g>
          <g id="Grupo_3007" data-name="Grupo 3007">
            <path id="Trazado_1968" data-name="Trazado 1968" d="M493.524,10166.552c-3.493-1.746-4.48-4.367-4.283-7.151,0,0,.123-5.3,3.431-6.754,0,0-.092-7.482,7.068-10.425,0,0-2.92,9.028,2.638,11.927,0,0,.179-2.894,5.433-4.46-1.62,3.351-.739,6.863-.086,7.663a8.082,8.082,0,0,1,1.224,4.757,5.764,5.764,0,0,1-2.658,4.382" fill="#fff"/>
            <path id="Trazado_1969" data-name="Trazado 1969" d="M493.523,10167.687a1.121,1.121,0,0,1-.506-.119c-3.512-1.756-5.163-4.522-4.91-8.224.016-.478.253-5.412,3.464-7.4a13.922,13.922,0,0,1,.892-3.82,12.126,12.126,0,0,1,6.845-6.954,1.135,1.135,0,0,1,1.511,1.4c-.023.072-2.127,6.787,1.014,9.8.7-1.2,2.254-2.762,5.654-3.775a1.135,1.135,0,0,1,1.346,1.581,7.821,7.821,0,0,0-.228,6.453,1.017,1.017,0,0,1,.072.1,9.2,9.2,0,0,1,1.4,5.527,6.838,6.838,0,0,1-3.176,5.188,1.135,1.135,0,1,1-1.212-1.919,4.637,4.637,0,0,0,2.139-3.575,6.891,6.891,0,0,0-1.031-3.954,8.963,8.963,0,0,1-.823-6.359c-2.254,1.2-2.459,2.56-2.46,2.576a1.135,1.135,0,0,1-1.657.937c-4.381-2.284-4.293-7.566-3.778-10.741a10.585,10.585,0,0,0-4.269,8.223,1.138,1.138,0,0,1-.677,1.049c-2.575,1.135-2.753,5.7-2.754,5.741,0,.019,0,.036,0,.055-.2,2.785.965,4.711,3.659,6.057a1.135,1.135,0,0,1-.509,2.149Z" fill="#1d6487"/>
          </g>
        </g>
      </g>
    </g>
  </g>
</svg>
