<svg xmlns="http://www.w3.org/2000/svg" width="228.221" height="228.218" viewBox="0 0 228.221 228.218">
  <g id="Grupo_3019" data-name="Grupo 3019" transform="translate(-795.578 -9926.546)">
    <g id="Grupo_2914" data-name="Grupo 2914" transform="translate(-17 -45)">
      <path id="Trazado_1533" data-name="Trazado 1533" d="M1040.8,10085.657a114.11,114.11,0,1,1-114.111-114.111A114.112,114.112,0,0,1,1040.8,10085.657Z" fill="#00c2db"/>
    </g>
    <g id="Filled_outline" data-name="Filled outline" transform="translate(-17 -45)">
      <path id="Trazado_1534" data-name="Trazado 1534" d="M921.766,10095.752H855.322v-59.062h17.226l4.922,4.922h44.3Z" fill="#ffa912"/>
      <path id="Trazado_1535" data-name="Trazado 1535" d="M855.322,10053.916h66.444v41.836H855.322Z" fill="#ffb531"/>
      <path id="Trazado_1536" data-name="Trazado 1536" d="M919.3,10053.916l-12.3-12.3H891.313l-13.843,12.3Z" fill="#f7a116"/>
      <path id="Trazado_1537" data-name="Trazado 1537" d="M872.548,10053.916l22.148-19.687,19.688,19.688Z" fill="#e0e0de"/>
      <path id="Trazado_1538" data-name="Trazado 1538" d="M983.289,10024.385a14.766,14.766,0,0,1,14.766,14.767v36.914h0a14.766,14.766,0,0,1-14.766-14.767v-36.914Z" fill="#f27900"/>
      <path id="Trazado_1539" data-name="Trazado 1539" d="M968.524,10088.369v-19.687H948.836v19.688H934.071v36.914h49.218v-36.914Z" fill="#fec9a3"/>
      <path id="Trazado_1540" data-name="Trazado 1540" d="M960.164,10080.986a13.506,13.506,0,0,0,8.36-3.018v-9.287H948.836v9.287a13.506,13.506,0,0,0,8.36,3.018Z" fill="#feb784"/>
      <path id="Trazado_1541" data-name="Trazado 1541" d="M983.289,10088.369h-9.844v22.147h-29.53v-22.147H932.962a12.3,12.3,0,0,0-11.616,8.244l-15.449,44.21a8.591,8.591,0,0,0,15.759,6.777c.038-.075.075-.152.11-.229l10.585-25.244a19.824,19.824,0,0,0,4.181,17.921v14.767h59.062v-54.141A12.3,12.3,0,0,0,983.289,10088.369Z" fill="#e0e0de"/>
      <path id="Trazado_1542" data-name="Trazado 1542" d="M983.289,10088.369h-9.844l-14.765,41.836-14.765-41.836H932.962a12.3,12.3,0,0,0-11.616,8.244l-15.449,44.21a8.591,8.591,0,0,0,15.759,6.777c.038-.075.075-.152.11-.229l10.528-25.107a19.7,19.7,0,0,0,4.238,17.784v14.767h59.062v-54.141A12.3,12.3,0,0,0,983.289,10088.369Z" fill="#3d4d63"/>
      <path id="Trazado_1543" data-name="Trazado 1543" d="M995.594,10102.442c-12.6,29.22-35.417,45.141-48.7,52.372h48.7Z" fill="#374559"/>
      <path id="Trazado_1544" data-name="Trazado 1544" d="M980.828,10036.69v17.226a22.136,22.136,0,0,1-25.178,21.939h0a22.144,22.144,0,0,1-19.115-21.939v-17.226A19.687,19.687,0,0,1,956.219,10017h4.922c.471,0,.938.015,1.4.052a19.688,19.688,0,0,1,18.2,17.806q.084.9.083,1.83Z" fill="#fec9a3"/>
      <path id="Trazado_1545" data-name="Trazado 1545" d="M980.828,10036.69v17.226a22.136,22.136,0,0,1-25.178,21.939,27.07,27.07,0,0,0,15.335-24.4v-14.766a26.979,26.979,0,0,0-7.931-19.141c-.169-.169-.338-.332-.51-.5A19.682,19.682,0,0,1,980.828,10036.69Z" fill="#fec093"/>
      <path id="Trazado_1546" data-name="Trazado 1546" d="M980.794,10036.007a23.576,23.576,0,0,1-7.355-11.622c-.578,0-2.138,0-4.18,0a17.96,17.96,0,0,0-17.962,17.947,26.684,26.684,0,0,1-12.018,22.268h0a21.992,21.992,0,0,1-2.744-10.681v-17.226A19.687,19.687,0,0,1,956.219,10017h4.922c.471,0,.938.015,1.4.052a19.688,19.688,0,0,1,18.2,17.806c.019.39.037.771.049,1.146Z" fill="#fec093"/>
      <path id="Trazado_1547" data-name="Trazado 1547" d="M943.915,10088.369l-12.3,9.844,9.844,7.383-2.461,7.382,19.687,17.228Z" fill="#4c5d72"/>
      <path id="Trazado_1548" data-name="Trazado 1548" d="M973.445,10088.369l12.3,9.844-9.844,7.383,2.461,7.382-19.687,17.228Z" fill="#4c5d72"/>
      <path id="Trazado_1549" data-name="Trazado 1549" d="M980.828,10039.151h2.461a7.382,7.382,0,1,1,0,14.765h-2.461v-14.765Z" fill="#feb784"/>
      <path id="Trazado_1550" data-name="Trazado 1550" d="M942.684,10039.151h6.152a6.152,6.152,0,0,1,6.153,6.151h0a6.153,6.153,0,0,1-6.153,6.153h-6.152a6.152,6.152,0,0,1-6.152-6.153h0A6.151,6.151,0,0,1,942.684,10039.151Z" fill="#d6d6d4"/>
      <path id="Trazado_1551" data-name="Trazado 1551" d="M968.524,10039.151h6.152a6.151,6.151,0,0,1,6.152,6.151h0a6.152,6.152,0,0,1-6.152,6.153h-6.152a6.153,6.153,0,0,1-6.153-6.153h0A6.152,6.152,0,0,1,968.524,10039.151Z" fill="#d6d6d4"/>
      <path id="Trazado_1552" data-name="Trazado 1552" d="M905.226,10143.435l1.775-23.073h14.765v23.709a8.282,8.282,0,0,1-16.564,0Q905.2,10143.753,905.226,10143.435Z" fill="#4c5d72"/>
      <path id="Trazado_1553" data-name="Trazado 1553" d="M912.79,10084.462a4.787,4.787,0,0,0-3.12,6.786l2.253,4.5H903.1a14.778,14.778,0,0,1-6.6-1.559l-2.452-1.227a2.952,2.952,0,0,0-4.273,2.642v6.945a4.922,4.922,0,0,0,2.72,4.4l4.005,2a14.764,14.764,0,0,0,6.6,1.558h18.662v-14.765l-3.37-8.425a4.788,4.788,0,0,0-5.606-2.865Z" fill="#fec9a3"/>
      <path id="Trazado_1554" data-name="Trazado 1554" d="M907,10110.517h14.765v9.845H907Z" fill="#e0e0de"/>
      <path id="Trazado_1555" data-name="Trazado 1555" d="M985.75,10034.229v4.923h-4.922l-.769-.386a22.012,22.012,0,0,1-10.262-10.892,26.5,26.5,0,0,1-1.279-3.485c-.422,0-1.363,0-2.634,0-.473,0-.993,0-1.547,0a17.961,17.961,0,0,0-17.962,17.947,26.715,26.715,0,0,1-14.765,23.892v-31.992a24.609,24.609,0,0,1,24.609-24.608h4.922a24.609,24.609,0,0,1,24.609,24.608Z" fill="#f98500"/>
      <path id="Trazado_1556" data-name="Trazado 1556" d="M975.236,10014.056l-5.439,13.818a26.5,26.5,0,0,1-1.279-3.485c-.422,0-1.363,0-2.634,0l5.014-12.753A24.265,24.265,0,0,1,975.236,10014.056Z" fill="#e67007"/>
      <path id="Trazado_1557" data-name="Trazado 1557" d="M855.322,10108.056H894.7v41.836H855.322Z" fill="#fff"/>
      <path id="Trazado_1558" data-name="Trazado 1558" d="M894.7,10121.9l-27.993,27.992H894.7Z" fill="#fff"/>
      <path id="Trazado_1559" data-name="Trazado 1559" d="M855.322,10108.056H894.7v12.306H855.322Z" fill="#f35244"/>
      <path id="Trazado_1560" data-name="Trazado 1560" d="M855.322,10120.361H894.7v4.922H855.322Z" fill="#5ac6d4"/>
      <path id="Trazado_1561" data-name="Trazado 1561" d="M985.314,10022.054a27.1,27.1,0,0,0-24.173-14.895h-4.922a27.1,27.1,0,0,0-27.07,27.069v31.992a2.465,2.465,0,0,0,1.167,2.095,4.7,4.7,0,0,0,2.4.106,29.625,29.625,0,0,0,4.394-2.7,24.377,24.377,0,0,0,9.27,9.493v10.69H932.964a14.777,14.777,0,0,0-8.737,2.856v-47.152a2.461,2.461,0,0,0-2.461-2.461H903.1l-6.661-6.662a2.463,2.463,0,0,0-3.376-.1l-7.606,6.762h-6.966l-4.2-4.2a2.458,2.458,0,0,0-1.74-.722H855.322a2.462,2.462,0,0,0-2.461,2.462v59.062a2.461,2.461,0,0,0,2.461,2.461h31.992v4.922h-4.922v2.461H867.626v-2.461H862.7v2.461h-7.382a2.461,2.461,0,0,0-2.461,2.46v41.836a2.461,2.461,0,0,0,2.461,2.461H894.7a2.461,2.461,0,0,0,2.461-2.461v-37.977a17.311,17.311,0,0,0,5.947,1.063h1.436v7.288l-1.768,22.982a10.744,10.744,0,0,0,9.889,11.534c.274.021.548.032.823.032.084,0,.167-.006.25-.008h.017c.094.008.168.008.215.008a11.1,11.1,0,0,0,10.033-6.4c.013-.029.026-.057.038-.086l6.1-14.546a22.7,22.7,0,0,0,3.731,7.144l.207,13.92,4.922-.073-.222-14.767a2.466,2.466,0,0,0-.573-1.543,17.121,17.121,0,0,1-3.569-15.429l1.71-4.061a2.461,2.461,0,0,0-4.385-2.21,19.356,19.356,0,0,0-1.986,4.658l-5.741,13.708v-38.964a9.78,9.78,0,0,1,8.737-5.341H936.9l-6.827,5.461a2.461,2.461,0,0,0-.384,3.459,2.487,2.487,0,0,0,.445.432l8.425,6.318-1.9,5.7a2.461,2.461,0,0,0,.714,2.63l18.847,16.491v23.493h4.922v-23.493l18.847-16.491a2.461,2.461,0,0,0,.714-2.63l-1.9-5.7,8.425-6.318a2.462,2.462,0,0,0,.493-3.445,2.491,2.491,0,0,0-.432-.445l-6.827-5.461h2.828a9.855,9.855,0,0,1,9.844,9.844v54.141h4.922v-54.141a14.784,14.784,0,0,0-14.766-14.766h-12.3v-10.687a24.472,24.472,0,0,0,10.087-11.053,17.253,17.253,0,0,0,16.983,14.358,2.462,2.462,0,0,0,2.461-2.461v-36.914a17.233,17.233,0,0,0-15.2-17.1Zm-66.009,22.02v7.383h-3.9l-7.383-7.383Zm-24.708-6.463,13.846,13.846H879.021Zm-23.068,1.541,4.2,4.2a2.454,2.454,0,0,0,1.74.722h2.448l-8.306,7.383H857.783v-12.3Zm-13.746,17.226H919.3v27.85a7.245,7.245,0,0,0-11.836,8.121l.472.943H903.1a12.37,12.37,0,0,1-5.5-1.3l-2.452-1.227a5.423,5.423,0,0,0-7.274,2.433l-.045.093H857.783Zm0,54.14H862.7v2.461h4.922v-2.461h14.766v2.461h4.922v-2.461h4.921v7.384H857.783Zm0,36.914v-24.608h34.452v24.608Zm39.818-40.674-4.005-2a2.448,2.448,0,0,1-1.361-2.2v-6.945a.494.494,0,0,1,.713-.44l2.452,1.226a17.306,17.306,0,0,0,7.7,1.819h8.819a2.461,2.461,0,0,0,2.2-3.562l-2.253-4.507a2.326,2.326,0,1,1,4.24-1.9l3.194,7.984v11.83H903.1a12.343,12.343,0,0,1-5.5-1.3Zm21.7,6.221v4.923h-9.843v-4.923Zm-11.625,30.646,1.6-20.8H919.3v21.248a5.825,5.825,0,0,1-5.387,5.8c-.05,0-.1,0-.15,0a2.523,2.523,0,0,0-.354.02,5.813,5.813,0,0,1-5.751-5.876c0-.129.007-.259.017-.388Zm53.063-102.012h-4.128a8.535,8.535,0,0,0-6.743-4.858,15.511,15.511,0,0,1,14.458-9.909h2.4a26.082,26.082,0,0,0,6.245,9.844h-4.45a8.626,8.626,0,0,0-7.781,4.924Zm-11.907.718c0-.24.007-.479.018-.717a3.7,3.7,0,0,1,2.848,1.355,3.7,3.7,0,0,1-2.827,6.026h-.8a29.5,29.5,0,0,0,.763-6.665Zm19.688-.718h6.152a3.691,3.691,0,0,1,0,7.383h-6.152a3.691,3.691,0,1,1,0-7.383Zm14.765,9.844v-9.844a4.922,4.922,0,1,1,0,9.844Zm0-17.228v2.462l-2.116-.118-.013-.006a19.946,19.946,0,0,1-10.03-12.071l3.215-8.036a22.125,22.125,0,0,1,8.944,17.77Zm-49.218,0a22.173,22.173,0,0,1,22.148-22.147h4.922a22.015,22.015,0,0,1,8.9,1.876l-3.187,7.968H964.33a20.413,20.413,0,0,0-20.415,20.405,24.1,24.1,0,0,1-9.844,19.515Zm34.453,56.6h1.443l-6.08,17.226H953.473l-6.08-17.226h1.443a2.461,2.461,0,0,0,2.461-2.461v-10.982a24.5,24.5,0,0,0,14.766,0v10.982A2.462,2.462,0,0,0,968.524,10090.83Zm-9.844,31.98-3.47-9.833h6.94Zm-16.835-10.606,1.943-5.83a2.46,2.46,0,0,0-.858-2.747l-7.3-5.476,7.118-5.7,10.487,29.715Zm32.585-8.577a2.46,2.46,0,0,0-.858,2.747l1.943,5.83-11.39,9.966,10.488-29.716,7.119,5.7Zm-7.007-32.077a19.649,19.649,0,0,1-26.341-8.854c-.058-.115-.114-.231-.169-.349a28.871,28.871,0,0,0,5.547-8.431h2.376a8.591,8.591,0,0,0,8.527-7.382H960a8.624,8.624,0,0,0,8.524,7.382h6.152a8.558,8.558,0,0,0,3.691-.832v.832a19.575,19.575,0,0,1-10.944,17.634Zm28.171,1.809a12.329,12.329,0,0,1-9.844-12.06v-5.232a9.841,9.841,0,0,0,2.461-18.053v-3.785a27.034,27.034,0,0,0-.837-6.687,12.359,12.359,0,0,1,8.22,11.61Z" fill="#023b5e"/>
      <path id="Trazado_1562" data-name="Trazado 1562" d="M978.367,10140.048v14.767h4.922v-13.9a21.862,21.862,0,0,0,2.16-23.694l-4.317,2.364a16.949,16.949,0,0,1-2.188,18.879A2.466,2.466,0,0,0,978.367,10140.048Z" fill="#023b5e"/>
      <path id="Trazado_1563" data-name="Trazado 1563" d="M958.68,10058.838a2.464,2.464,0,0,1-2.461-2.461H951.3a7.383,7.383,0,0,0,14.766,0h-4.922A2.463,2.463,0,0,1,958.68,10058.838Z" fill="#023b5e"/>
      <path id="Trazado_1564" data-name="Trazado 1564" d="M946.375,10135.127H951.3v4.921h-4.922Z" fill="#023b5e"/>
      <path id="Trazado_1565" data-name="Trazado 1565" d="M862.7,10127.744h4.922v4.922H862.7Z" fill="#023b5e"/>
      <path id="Trazado_1566" data-name="Trazado 1566" d="M872.548,10127.744h4.922v4.922h-4.922Z" fill="#023b5e"/>
      <path id="Trazado_1567" data-name="Trazado 1567" d="M882.392,10127.744h4.922v4.922h-4.922Z" fill="#023b5e"/>
      <path id="Trazado_1568" data-name="Trazado 1568" d="M862.7,10137.587h4.922v4.922H862.7Z" fill="#023b5e"/>
      <path id="Trazado_1569" data-name="Trazado 1569" d="M872.548,10137.587h4.922v4.922h-4.922Z" fill="#023b5e"/>
      <path id="Trazado_1570" data-name="Trazado 1570" d="M882.392,10137.587h4.922v4.922h-4.922Z" fill="#023b5e"/>
      <path id="Trazado_1571" data-name="Trazado 1571" d="M862.7,10061.3h4.922v4.922H862.7Z" fill="#023b5e"/>
      <path id="Trazado_1572" data-name="Trazado 1572" d="M862.7,10071.143h4.922v17.227H862.7Z" fill="#023b5e"/>
    </g>
  </g>
</svg>
