<svg xmlns="http://www.w3.org/2000/svg" width="152.443" height="152.443" viewBox="0 0 152.443 152.443">
  <g id="Grupo_3028" data-name="Grupo 3028" transform="translate(-1018.865 -7762.125)">
    <path id="Trazado_813" data-name="Trazado 813" d="M2759.087,7769.125q3.744,0,7.471.367t7.4,1.1q3.672.731,7.256,1.817t7.042,2.52q3.461,1.434,6.762,3.2t6.416,3.846q3.114,2.08,6.008,4.456t5.542,5.023q2.649,2.647,5.024,5.542t4.456,6.008q2.079,3.114,3.845,6.416t3.2,6.762q1.434,3.458,2.52,7.043t1.818,7.256q.731,3.672,1.1,7.4t.367,7.471q0,3.743-.367,7.471t-1.1,7.4q-.731,3.672-1.818,7.256t-2.52,7.043q-1.433,3.458-3.2,6.761t-3.845,6.416q-2.08,3.114-4.456,6.008t-5.024,5.542q-2.647,2.648-5.542,5.024t-6.008,4.456q-3.113,2.08-6.416,3.845t-6.762,3.2q-3.459,1.434-7.042,2.52t-7.256,1.818q-3.673.73-7.4,1.1t-7.471.367q-3.745,0-7.471-.367t-7.4-1.1q-3.673-.73-7.256-1.818t-7.043-2.52q-3.459-1.433-6.762-3.2t-6.416-3.845q-3.112-2.081-6.008-4.456t-5.542-5.024q-2.647-2.646-5.023-5.542t-4.456-6.008q-2.08-3.114-3.846-6.416t-3.2-6.761q-1.433-3.461-2.52-7.043t-1.817-7.256q-.731-3.672-1.1-7.4t-.367-7.471q0-3.744.367-7.471t1.1-7.4q.73-3.674,1.817-7.256t2.52-7.043q1.433-3.459,3.2-6.762t3.846-6.416q2.08-3.113,4.456-6.008t5.023-5.542q2.648-2.648,5.542-5.023t6.008-4.456q3.114-2.081,6.416-3.846t6.762-3.2q3.459-1.432,7.043-2.52t7.256-1.817q3.672-.73,7.4-1.1T2759.087,7769.125Z" transform="translate(-1664 -7)" fill="#db9600"/>
    <circle id="Elipse_27" data-name="Elipse 27" cx="71.597" cy="71.597" r="71.597" transform="translate(1023.49 7766.75)" fill="#fff"/>
    <circle id="Elipse_28" data-name="Elipse 28" cx="65.13" cy="65.13" r="65.13" transform="translate(1029.957 7773.217)" fill="#f2f2f2"/>
    <g id="Grupo_1465" data-name="Grupo 1465" transform="translate(-1664 -7)">
      <path id="Trazado_843" data-name="Trazado 843" d="M2824.366,7845.347a64.484,64.484,0,1,1-64.482-64.483A64.483,64.483,0,0,1,2824.366,7845.347Z" fill="#8fdef6"/>
      <path id="Trazado_844" data-name="Trazado 844" d="M2763,7909.752a64.492,64.492,0,0,0,61.041-57.9l-29.627-29.623a2.789,2.789,0,0,0-1.995-.83h-65.068a2.824,2.824,0,0,0-2.826,2.829v38.213a2.823,2.823,0,0,0,.757,1.932.48.48,0,0,0,.067.077.693.693,0,0,0,.074.067l5.068,5.065-5.966,1.694Z" fill="#70c9e9"/>
      <g id="Grupo_1464" data-name="Grupo 1464">
        <g id="Grupo_1459" data-name="Grupo 1459">
          <rect id="Rectángulo_859" data-name="Rectángulo 859" width="37.376" height="2.002" transform="translate(2729.721 7868.275)" fill="#495057"/>
          <rect id="Rectángulo_860" data-name="Rectángulo 860" width="37.376" height="2.002" transform="translate(2729.721 7870.277)" fill="#343b43"/>
          <rect id="Rectángulo_861" data-name="Rectángulo 861" width="37.376" height="2.002" transform="translate(2729.721 7872.279)" fill="#1e262e"/>
          <path id="Trazado_845" data-name="Trazado 845" d="M2729.721,7874.284l-3.472-2v-2l3.472-2Z" fill="#fff"/>
          <path id="Trazado_846" data-name="Trazado 846" d="M2729.721,7874.284v-2l-3.472-.667v.667Z" fill="#cccbca"/>
          <path id="Trazado_847" data-name="Trazado 847" d="M2726.25,7872.279l-1.727-1,1.727-1Z" fill="#343b43"/>
          <rect id="Rectángulo_862" data-name="Rectángulo 862" width="2.002" height="2" transform="translate(2767.096 7874.278) rotate(-89.902)" fill="#cccbca"/>
          <rect id="Rectángulo_863" data-name="Rectángulo 863" width="2" height="4.004" transform="translate(2767.098 7868.275)" fill="#fff"/>
          <path id="Trazado_848" data-name="Trazado 848" d="M2769.561,7874.28h-.465v-2h.465a3.011,3.011,0,0,0,2.127-.878,3.072,3.072,0,0,0,.706-1.124,3,3,0,0,1-2.833,4Z" fill="#e24f3b"/>
          <path id="Trazado_849" data-name="Trazado 849" d="M2769.561,7872.279h-.465l0-4.008.461,0a3,3,0,0,1,2.833,2,3.072,3.072,0,0,1-.706,1.124A3.011,3.011,0,0,1,2769.561,7872.279Z" fill="#fd8369"/>
        </g>
        <g id="Grupo_1463" data-name="Grupo 1463">
          <g id="Grupo_1460" data-name="Grupo 1460">
            <path id="Trazado_850" data-name="Trazado 850" d="M2795.245,7862.447a2.836,2.836,0,0,1-2.829,2.828h-65.068a2.829,2.829,0,0,1-2.826-2.828V7824.23a2.824,2.824,0,0,1,2.826-2.826h65.068a2.831,2.831,0,0,1,2.829,2.826Z" fill="#fff"/>
            <path id="Trazado_851" data-name="Trazado 851" d="M2787.575,7874.264v-8.988h-8.988Z" fill="#fff"/>
          </g>
          <g id="Grupo_1461" data-name="Grupo 1461">
            <rect id="Rectángulo_864" data-name="Rectángulo 864" width="55.387" height="3.174" transform="translate(2732.188 7854.436)" fill="#cccbca"/>
            <rect id="Rectángulo_865" data-name="Rectángulo 865" width="30.018" height="3.173" transform="translate(2757.557 7848.095)" fill="#cccbca"/>
            <rect id="Rectángulo_866" data-name="Rectángulo 866" width="30.018" height="3.17" transform="translate(2757.557 7841.755)" fill="#cccbca"/>
            <rect id="Rectángulo_867" data-name="Rectángulo 867" width="30.018" height="3.173" transform="translate(2757.557 7835.411)" fill="#cccbca"/>
            <rect id="Rectángulo_868" data-name="Rectángulo 868" width="15.007" height="3.17" transform="translate(2757.557 7829.071)" fill="#343b43"/>
          </g>
          <g id="Grupo_1462" data-name="Grupo 1462">
            <rect id="Rectángulo_869" data-name="Rectángulo 869" width="22.198" height="22.198" transform="translate(2732.185 7829.071)" fill="#ea6552"/>
            <path id="Trazado_852" data-name="Trazado 852" d="M2745.465,7833.707h-4.358l-4.861,12.925h4.081l.629-2.132h4.536l.646,2.132h4.185Zm-3.639,8,1.41-4.646,1.426,4.646Z" fill="#fff"/>
          </g>
        </g>
      </g>
    </g>
  </g>
</svg>
