<svg xmlns="http://www.w3.org/2000/svg" width="134.505" height="134.505" viewBox="0 0 134.505 134.505">
  <g id="Grupo_3012" data-name="Grupo 3012" transform="translate(-712.712 -2453.579)">
    <g id="Grupo_2819" data-name="Grupo 2819" transform="translate(58 -74)">
      <path id="Trazado_1285" data-name="Trazado 1285" d="M721.964,2527.579q3.3,0,6.592.324t6.528.969q3.242.643,6.4,1.6t6.214,2.223q3.053,1.265,5.966,2.822t5.661,3.393q2.746,1.836,5.3,3.932t4.89,4.432q2.336,2.335,4.432,4.89t3.931,5.3q1.836,2.747,3.393,5.661t2.822,5.966q1.265,3.052,2.224,6.214t1.6,6.4q.645,3.24.969,6.528t.324,6.592q0,3.3-.324,6.592t-.969,6.529q-.644,3.24-1.6,6.4t-2.224,6.214q-1.264,3.052-2.822,5.966t-3.393,5.66q-1.835,2.748-3.931,5.3t-4.432,4.89q-2.337,2.336-4.89,4.432t-5.3,3.931q-2.748,1.836-5.661,3.393t-5.966,2.822q-3.052,1.264-6.214,2.224t-6.4,1.6q-3.24.645-6.528.969t-6.592.324q-3.3,0-6.592-.324t-6.528-.969q-3.24-.643-6.4-1.6t-6.214-2.224q-3.053-1.265-5.966-2.822t-5.661-3.393q-2.746-1.835-5.3-3.931t-4.89-4.432q-2.337-2.337-4.432-4.89t-3.932-5.3q-1.836-2.747-3.393-5.66t-2.822-5.966q-1.263-3.053-2.223-6.214t-1.6-6.4q-.644-3.241-.968-6.529t-.324-6.592q0-3.3.324-6.592t.968-6.528q.645-3.24,1.6-6.4t2.223-6.214q1.265-3.052,2.822-5.966t3.393-5.661q1.836-2.747,3.932-5.3t4.432-4.89q2.336-2.337,4.89-4.432t5.3-3.932q2.746-1.835,5.661-3.393t5.966-2.822q3.052-1.263,6.214-2.223t6.4-1.6q3.24-.645,6.528-.969T721.964,2527.579Z" fill="#6595bf"/>
    </g>
    <circle id="Elipse_48" data-name="Elipse 48" cx="63.171" cy="63.171" r="63.171" transform="translate(716.793 2457.66)" fill="#fff"/>
    <g id="Grupo_2820" data-name="Grupo 2820" transform="translate(58 -74)">
      <circle id="Elipse_49" data-name="Elipse 49" cx="57.466" cy="57.466" r="57.466" transform="translate(663.949 2537.365)" fill="#aed3f2"/>
    </g>
    <g id="Grupo_2840" data-name="Grupo 2840" transform="translate(58 -74)">
      <path id="Trazado_1288" data-name="Trazado 1288" d="M691.439,2552.5v77.639h10.018l18.783-26.693,1.252-25.473L720.24,2552.5Z" fill="#00c2db"/>
      <path id="Trazado_1289" data-name="Trazado 1289" d="M749.042,2552.5h-28.8v50.946l28.8-40.929V2552.5Z" fill="#00aab7"/>
      <path id="Trazado_1290" data-name="Trazado 1290" d="M701.457,2562.517v75.134h27.549l2.5-37.567-2.5-37.567Z" fill="#f9f9f9"/>
      <path id="Trazado_1291" data-name="Trazado 1291" d="M729.006,2562.517v75.134h11.026l3.611-13.469,12.912-3.025v-58.64Z" fill="#e2dff4"/>
      <path id="Trazado_1292" data-name="Trazado 1292" d="M740.032,2637.651l16.523-16.494H740.032Z" fill="#bebcdd"/>
      <g id="Grupo_2822" data-name="Grupo 2822">
        <g id="Grupo_2821" data-name="Grupo 2821">
          <path id="Trazado_1293" data-name="Trazado 1293" d="M729.006,2577.543H711.474v-5.009h17.532l2.5,2.505Z" fill="#4e6ba6"/>
        </g>
      </g>
      <g id="Grupo_2824" data-name="Grupo 2824">
        <g id="Grupo_2823" data-name="Grupo 2823">
          <path id="Trazado_1294" data-name="Trazado 1294" d="M729.006,2587.561H711.474v-5.009h17.532l2.5,2.5Z" fill="#a7cafc"/>
        </g>
      </g>
      <g id="Grupo_2826" data-name="Grupo 2826">
        <g id="Grupo_2825" data-name="Grupo 2825">
          <path id="Trazado_1295" data-name="Trazado 1295" d="M729.006,2597.579H711.474v-5.009h17.532l2.5,2.5Z" fill="#a7cafc"/>
        </g>
      </g>
      <g id="Grupo_2828" data-name="Grupo 2828">
        <g id="Grupo_2827" data-name="Grupo 2827">
          <path id="Trazado_1296" data-name="Trazado 1296" d="M729.006,2607.6H711.474v-5.009h17.532l2.5,2.505Z" fill="#a7cafc"/>
        </g>
      </g>
      <g id="Grupo_2830" data-name="Grupo 2830">
        <g id="Grupo_2829" data-name="Grupo 2829">
          <path id="Trazado_1297" data-name="Trazado 1297" d="M746.537,2577.543H729.006v-5.009h17.531Z" fill="#28487a"/>
        </g>
      </g>
      <g id="Grupo_2832" data-name="Grupo 2832">
        <g id="Grupo_2831" data-name="Grupo 2831">
          <path id="Trazado_1298" data-name="Trazado 1298" d="M746.537,2587.561H729.006v-5.009h17.531Z" fill="#8493fb"/>
        </g>
      </g>
      <g id="Grupo_2834" data-name="Grupo 2834">
        <g id="Grupo_2833" data-name="Grupo 2833">
          <path id="Trazado_1299" data-name="Trazado 1299" d="M746.537,2597.579H729.006v-5.009h17.531Z" fill="#8493fb"/>
        </g>
      </g>
      <g id="Grupo_2836" data-name="Grupo 2836">
        <g id="Grupo_2835" data-name="Grupo 2835">
          <path id="Trazado_1300" data-name="Trazado 1300" d="M746.537,2607.6H729.006v-5.009h17.531Z" fill="#8493fb"/>
        </g>
      </g>
      <g id="Grupo_2839" data-name="Grupo 2839">
        <g id="Grupo_2838" data-name="Grupo 2838">
          <g id="Grupo_2837" data-name="Grupo 2837">
            <path id="Trazado_1301" data-name="Trazado 1301" d="M729.006,2617.615H711.474v-5.009h17.532Z" fill="#db9600"/>
          </g>
        </g>
      </g>
    </g>
  </g>
</svg>
