<svg xmlns="http://www.w3.org/2000/svg" width="134.505" height="134.505" viewBox="0 0 134.505 134.505">
  <g id="Grupo_3014" data-name="Grupo 3014" transform="translate(-704.712 -3449.196)">
    <g id="Grupo_2817" data-name="Grupo 2817" transform="translate(50 -74)">
      <path id="Trazado_1278" data-name="Trazado 1278" d="M721.964,3523.2q3.3,0,6.592.324t6.528.969q3.242.643,6.4,1.6t6.214,2.224q3.053,1.263,5.966,2.821t5.661,3.393q2.746,1.836,5.3,3.932t4.89,4.432q2.336,2.335,4.432,4.89t3.931,5.3q1.836,2.747,3.393,5.661t2.822,5.966q1.265,3.053,2.224,6.214t1.6,6.4q.645,3.24.969,6.528t.324,6.592q0,3.3-.324,6.592t-.969,6.529q-.644,3.24-1.6,6.4t-2.224,6.214q-1.264,3.052-2.822,5.966t-3.393,5.661q-1.835,2.747-3.931,5.3t-4.432,4.89q-2.337,2.337-4.89,4.432t-5.3,3.931q-2.748,1.836-5.661,3.394t-5.966,2.821q-3.052,1.265-6.214,2.224t-6.4,1.6q-3.24.645-6.528.969t-6.592.324q-3.3,0-6.592-.324t-6.528-.969q-3.24-.643-6.4-1.6t-6.214-2.224q-3.053-1.265-5.966-2.821t-5.661-3.394q-2.746-1.834-5.3-3.931T674.41,3638q-2.337-2.335-4.432-4.89t-3.932-5.3q-1.836-2.748-3.393-5.661t-2.822-5.966q-1.263-3.053-2.223-6.214t-1.6-6.4q-.644-3.24-.968-6.529t-.324-6.592q0-3.3.324-6.592t.968-6.528q.645-3.24,1.6-6.4t2.223-6.214q1.265-3.052,2.822-5.966t3.393-5.661q1.836-2.747,3.932-5.3t4.432-4.89q2.336-2.337,4.89-4.432t5.3-3.932q2.746-1.835,5.661-3.393t5.966-2.821q3.052-1.265,6.214-2.224t6.4-1.6q3.24-.645,6.528-.969T721.964,3523.2Z" fill="#6595bf"/>
    </g>
    <circle id="Elipse_46" data-name="Elipse 46" cx="63.171" cy="63.171" r="63.171" transform="translate(708.793 3453.277)" fill="#fff"/>
    <g id="Grupo_2818" data-name="Grupo 2818" transform="translate(50 -74)">
      <circle id="Elipse_47" data-name="Elipse 47" cx="57.466" cy="57.466" r="57.466" transform="translate(663.949 3532.983)" fill="#aed3f2"/>
    </g>
    <g id="Grupo_2849" data-name="Grupo 2849" transform="translate(50 -74)">
      <rect id="Rectángulo_1674" data-name="Rectángulo 1674" width="57.79" height="68.798" rx="1.376" transform="translate(686.083 3559.567)" fill="#2b93cb"/>
      <path id="Trazado_1331" data-name="Trazado 1331" d="M699.843,3563.7V3560.3a1.375,1.375,0,0,1,.612-1.145l3.515-2.344H708.1v-3.44a1.374,1.374,0,0,1,.551-1.1l4.586-3.44a1.374,1.374,0,0,1,.826-.275H715.9a1.374,1.374,0,0,1,.826.275l4.587,3.44a1.376,1.376,0,0,1,.55,1.1v3.44h4.128l3.515,2.344a1.376,1.376,0,0,1,.613,1.145v3.391a1.376,1.376,0,0,1-1.376,1.376H701.219A1.376,1.376,0,0,1,699.843,3563.7Z" fill="#eeba2b"/>
      <circle id="Elipse_52" data-name="Elipse 52" cx="1.376" cy="1.376" r="1.376" transform="translate(713.602 3552.688)" fill="#c77708"/>
      <rect id="Rectángulo_1675" data-name="Rectángulo 1675" width="8.256" height="8.256" rx="1.376" transform="translate(692.963 3599.47)" fill="#eeba2b"/>
      <rect id="Rectángulo_1676" data-name="Rectángulo 1676" width="8.256" height="8.256" rx="1.376" transform="translate(692.963 3614.606)" fill="#eeba2b"/>
      <path id="Trazado_1332" data-name="Trazado 1332" d="M696.192,3602.537l8.254-6.877,1.762,2.114-8.253,6.878Z" fill="#195185"/>
      <path id="Trazado_1333" data-name="Trazado 1333" d="M696.188,3617.671l8.254-6.878,1.762,2.115-8.254,6.877Z" fill="#195185"/>
      <path id="Trazado_1334" data-name="Trazado 1334" d="M694.339,3571.951h12.383v8.256H692.963v-6.88A1.376,1.376,0,0,1,694.339,3571.951Z" fill="#216ead"/>
      <g id="Grupo_2848" data-name="Grupo 2848">
        <path id="Trazado_1335" data-name="Trazado 1335" d="M710.85,3599.47H713.6v2.752H710.85Z" fill="#195185"/>
        <path id="Trazado_1336" data-name="Trazado 1336" d="M716.354,3599.47h17.888v2.752H716.354Z" fill="#195185"/>
        <path id="Trazado_1337" data-name="Trazado 1337" d="M708.1,3604.974h9.632v2.752H708.1Z" fill="#195185"/>
        <path id="Trazado_1338" data-name="Trazado 1338" d="M720.482,3604.974h13.76v2.752h-13.76Z" fill="#195185"/>
        <path id="Trazado_1339" data-name="Trazado 1339" d="M710.85,3614.606H713.6v2.752H710.85Z" fill="#195185"/>
        <path id="Trazado_1340" data-name="Trazado 1340" d="M716.354,3614.606h19.264v2.752H716.354Z" fill="#195185"/>
        <path id="Trazado_1341" data-name="Trazado 1341" d="M708.1,3620.11h9.632v2.751H708.1Z" fill="#195185"/>
        <path id="Trazado_1342" data-name="Trazado 1342" d="M720.482,3620.11h15.136v2.751H720.482Z" fill="#195185"/>
        <path id="Trazado_1343" data-name="Trazado 1343" d="M736.994,3580.207H706.722v-8.256h28.9a1.377,1.377,0,0,1,1.376,1.376Z" fill="#195185"/>
        <path id="Trazado_1344" data-name="Trazado 1344" d="M692.963,3580.207h13.759v11.007H694.339a1.376,1.376,0,0,1-1.376-1.376v-9.631Z" fill="#195185"/>
      </g>
      <path id="Trazado_1345" data-name="Trazado 1345" d="M735.618,3591.214h-28.9v-11.007h30.272v9.631A1.377,1.377,0,0,1,735.618,3591.214Z" fill="#0a2b63"/>
      <path id="Trazado_1346" data-name="Trazado 1346" d="M759.009,3593.966v-2.531a2.751,2.751,0,0,0-1.387-2.389l-7.091-4.052a2.752,2.752,0,0,0-2.388-.166l-5.646,2.258v17.888H757.59a1.419,1.419,0,0,0,1.419-1.419h0Z" fill="#d6ac89"/>
      <path id="Trazado_1347" data-name="Trazado 1347" d="M734.242,3589.838l-1.376-4.127,4.128-1.376,28.895,13.759-2.752,5.5Z" fill="#216ead"/>
      <path id="Trazado_1348" data-name="Trazado 1348" d="M757.3,3603.186l1.069.427a.955.955,0,0,1,.613.947,8.2,8.2,0,0,1-1.347,3.854,8.194,8.194,0,0,0-1.376,4.544v15.407H742.5V3610.8a1.371,1.371,0,0,0-.145-.616l-2.461-4.922a1.374,1.374,0,0,1-.146-.616v-9.307a2.752,2.752,0,0,1,5.5,0v4.128l2.349,2.349a1.377,1.377,0,0,0,.973.4h3.708a13.546,13.546,0,0,1,5.019.964Z" fill="#f5c99d"/>
    </g>
  </g>
</svg>
