<svg xmlns="http://www.w3.org/2000/svg" width="158.928" height="158.928" viewBox="0 0 158.928 158.928">
  <g id="Grupo_3021" data-name="Grupo 3021" transform="translate(-281.595 -2933.159)">
    <g id="Grupo_1391" data-name="Grupo 1391" transform="translate(-1689 -19)">
      <path id="Trazado_753" data-name="Trazado 753" d="M2050.607,2964.371q3.3,0,6.592.323t6.528.969q3.241.645,6.4,1.6t6.214,2.224q3.052,1.265,5.967,2.822t5.66,3.393q2.748,1.834,5.3,3.931t4.891,4.432q2.335,2.337,4.432,4.89t3.931,5.3q1.836,2.748,3.393,5.661t2.822,5.966q1.265,3.052,2.223,6.214t1.6,6.4q.645,3.242.968,6.529t.324,6.592q0,3.3-.324,6.591t-.968,6.529q-.645,3.24-1.6,6.4t-2.223,6.214q-1.265,3.053-2.822,5.966t-3.393,5.661q-1.834,2.746-3.931,5.3t-4.432,4.89q-2.337,2.337-4.891,4.432t-5.3,3.932q-2.747,1.836-5.66,3.393t-5.967,2.821q-3.052,1.265-6.214,2.224t-6.4,1.6q-3.24.643-6.528.968t-6.592.324q-3.3,0-6.592-.324t-6.528-.968q-3.24-.645-6.4-1.6t-6.214-2.224q-3.052-1.264-5.966-2.821t-5.661-3.393q-2.747-1.836-5.3-3.932t-4.89-4.432q-2.337-2.335-4.433-4.89t-3.931-5.3q-1.836-2.747-3.393-5.661t-2.822-5.966q-1.265-3.052-2.223-6.214t-1.6-6.4q-.643-3.24-.968-6.529t-.324-6.591q0-3.3.324-6.592t.968-6.529q.645-3.24,1.6-6.4t2.223-6.214q1.265-3.051,2.822-5.966t3.393-5.661q1.836-2.747,3.931-5.3t4.433-4.89q2.336-2.336,4.89-4.432t5.3-3.931q2.746-1.836,5.661-3.393t5.966-2.822q3.053-1.265,6.214-2.224t6.4-1.6q3.24-.645,6.528-.969T2050.607,2964.371Z" fill="#6595bf"/>
    </g>
    <circle id="Elipse_14" data-name="Elipse 14" cx="63.171" cy="63.171" r="63.171" transform="translate(298.436 2949.451)" fill="#fff"/>
    <g id="Grupo_1392" data-name="Grupo 1392" transform="translate(-1689 -19)">
      <circle id="Elipse_15" data-name="Elipse 15" cx="57.466" cy="57.466" r="57.466" transform="translate(1992.592 2974.157)" fill="#aed3f2"/>
    </g>
    <g id="Grupo_1419" data-name="Grupo 1419" transform="translate(-1689 -19)">
      <circle id="Elipse_21" data-name="Elipse 21" cx="56.189" cy="56.189" r="56.189" transform="translate(1970.595 3031.623) rotate(-45)" fill="#8fdef6"/>
      <path id="Trazado_764" data-name="Trazado 764" d="M2106.052,3036.144l-32.453-32.45a9.818,9.818,0,0,0-6.972-2.888h-33.135a9.863,9.863,0,0,0-9.86,9.86v49.594a2.143,2.143,0,0,0,.639,1.537l26.009,26.009A56.181,56.181,0,0,0,2106.052,3036.144Z" fill="#70c9e9"/>
      <g id="Grupo_1418" data-name="Grupo 1418">
        <g id="Grupo_1402" data-name="Grupo 1402">
          <rect id="Rectángulo_822" data-name="Rectángulo 822" width="1.92" height="34.119" transform="translate(2070.717 3023.061)" fill="#495057"/>
          <rect id="Rectángulo_823" data-name="Rectángulo 823" width="1.925" height="34.119" transform="translate(2072.637 3023.061)" fill="#343b43"/>
          <rect id="Rectángulo_824" data-name="Rectángulo 824" width="1.922" height="34.119" transform="translate(2074.562 3023.061)" fill="#1e262e"/>
          <path id="Trazado_765" data-name="Trazado 765" d="M2076.487,3023.061l-1.928-3.331-1.917,0-1.925,3.334Z" fill="#fff"/>
          <path id="Trazado_766" data-name="Trazado 766" d="M2076.487,3023.061h-1.925l-.642-3.334.639,0Z" fill="#e6e5e5"/>
          <path id="Trazado_767" data-name="Trazado 767" d="M2074.559,3019.73l-.96-1.666-.957,1.663Z" fill="#495057"/>
          <rect id="Rectángulo_825" data-name="Rectángulo 825" width="1.922" height="1.922" transform="translate(2074.562 3057.179)" fill="#e6e5e5"/>
          <rect id="Rectángulo_826" data-name="Rectángulo 826" width="3.845" height="1.922" transform="translate(2070.717 3057.179)" fill="#fff"/>
          <path id="Trazado_768" data-name="Trazado 768" d="M2076.484,3059.551v-.449h-1.925v.449a2.86,2.86,0,0,1-1.922,2.716,2.88,2.88,0,0,0,3.847-2.716Z" fill="#ea6552"/>
          <path id="Trazado_769" data-name="Trazado 769" d="M2074.559,3059.551v-.449h-3.848l0,.449a2.882,2.882,0,0,0,.846,2.039,1.961,1.961,0,0,0,3-2.039Z" fill="#fd8369"/>
        </g>
        <g id="Grupo_1417" data-name="Grupo 1417">
          <g id="Grupo_1403" data-name="Grupo 1403">
            <path id="Trazado_770" data-name="Trazado 770" d="M2064.451,3062.436a2.176,2.176,0,0,0,2.176-2.176v-59.454h-33.138a9.864,9.864,0,0,0-9.86,9.863v49.591a2.181,2.181,0,0,0,2.176,2.176Z" fill="#fff"/>
            <path id="Trazado_771" data-name="Trazado 771" d="M2043.349,3010.669a9.862,9.862,0,0,0-9.86-9.863h33.138a9.859,9.859,0,0,1,9.86,9.86Z" fill="#cccbca"/>
          </g>
          <g id="Grupo_1416" data-name="Grupo 1416">
            <g id="Grupo_1406" data-name="Grupo 1406">
              <g id="Grupo_1404" data-name="Grupo 1404">
                <path id="Trazado_772" data-name="Trazado 772" d="M2034.4,3021a3.111,3.111,0,1,1-3.112-3.113A3.11,3.11,0,0,1,2034.4,3021Z" fill="#f7931e"/>
                <path id="Trazado_773" data-name="Trazado 773" d="M2031.284,3022.626l-2-2,.881-.881,1.114,1.115,2.672-2.669.881.878Z" fill="#495057"/>
              </g>
              <g id="Grupo_1405" data-name="Grupo 1405">
                <rect id="Rectángulo_827" data-name="Rectángulo 827" width="22.92" height="2.074" transform="translate(2039.166 3017.886)" fill="#d9d8d7"/>
                <rect id="Rectángulo_828" data-name="Rectángulo 828" width="11.94" height="2.074" transform="translate(2039.166 3022.034)" fill="#d9d8d7"/>
              </g>
            </g>
            <g id="Grupo_1409" data-name="Grupo 1409">
              <g id="Grupo_1407" data-name="Grupo 1407">
                <path id="Trazado_774" data-name="Trazado 774" d="M2034.4,3031.366a3.111,3.111,0,1,1-3.112-3.11A3.11,3.11,0,0,1,2034.4,3031.366Z" fill="#f7931e"/>
                <path id="Trazado_775" data-name="Trazado 775" d="M2031.284,3033l-2-2,.881-.878,1.114,1.117,2.672-2.672.881.881Z" fill="#495057"/>
              </g>
              <g id="Grupo_1408" data-name="Grupo 1408">
                <rect id="Rectángulo_829" data-name="Rectángulo 829" width="22.92" height="2.074" transform="translate(2039.166 3028.256)" fill="#d9d8d7"/>
                <rect id="Rectángulo_830" data-name="Rectángulo 830" width="11.94" height="2.074" transform="translate(2039.166 3032.404)" fill="#d9d8d7"/>
              </g>
            </g>
            <g id="Grupo_1412" data-name="Grupo 1412">
              <g id="Grupo_1410" data-name="Grupo 1410">
                <path id="Trazado_776" data-name="Trazado 776" d="M2034.4,3041.739a3.111,3.111,0,1,1-3.112-3.112A3.111,3.111,0,0,1,2034.4,3041.739Z" fill="#f7931e"/>
                <path id="Trazado_777" data-name="Trazado 777" d="M2031.284,3043.367l-2-2,.881-.881,1.114,1.117,2.672-2.672.881.878Z" fill="#495057"/>
              </g>
              <g id="Grupo_1411" data-name="Grupo 1411">
                <rect id="Rectángulo_831" data-name="Rectángulo 831" width="22.92" height="2.074" transform="translate(2039.166 3038.627)" fill="#d9d8d7"/>
                <rect id="Rectángulo_832" data-name="Rectángulo 832" width="11.94" height="2.074" transform="translate(2039.166 3042.775)" fill="#d9d8d7"/>
              </g>
            </g>
            <g id="Grupo_1415" data-name="Grupo 1415">
              <g id="Grupo_1413" data-name="Grupo 1413">
                <path id="Trazado_778" data-name="Trazado 778" d="M2034.4,3052.109a3.111,3.111,0,1,1-3.112-3.112A3.111,3.111,0,0,1,2034.4,3052.109Z" fill="#f7931e"/>
                <path id="Trazado_779" data-name="Trazado 779" d="M2031.284,3053.737l-2-2,.881-.881,1.114,1.117,2.672-2.672.881.881Z" fill="#495057"/>
              </g>
              <g id="Grupo_1414" data-name="Grupo 1414">
                <rect id="Rectángulo_833" data-name="Rectángulo 833" width="22.92" height="2.074" transform="translate(2039.166 3048.997)" fill="#d9d8d7"/>
                <rect id="Rectángulo_834" data-name="Rectángulo 834" width="11.94" height="2.077" transform="translate(2039.166 3053.145)" fill="#d9d8d7"/>
              </g>
            </g>
          </g>
        </g>
      </g>
    </g>
  </g>
</svg>
