<svg xmlns="http://www.w3.org/2000/svg" width="134.504" height="134.504" viewBox="0 0 134.504 134.504">
  <g id="Grupo_3022" data-name="Grupo 3022" transform="translate(-319.355 -3271.371)">
    <g id="Grupo_1395" data-name="Grupo 1395" transform="translate(-1664 -7)">
      <path id="Trazado_755" data-name="Trazado 755" d="M2050.607,3278.371q3.3,0,6.592.323t6.528.969q3.241.645,6.4,1.6t6.214,2.224q3.052,1.265,5.967,2.822t5.66,3.393q2.748,1.834,5.3,3.931t4.891,4.432q2.335,2.337,4.432,4.89t3.931,5.3q1.836,2.748,3.393,5.661t2.822,5.966q1.265,3.052,2.223,6.214t1.6,6.4q.645,3.242.968,6.529t.324,6.592q0,3.3-.324,6.591t-.968,6.529q-.645,3.24-1.6,6.4t-2.223,6.214q-1.265,3.053-2.822,5.966t-3.393,5.661q-1.834,2.746-3.931,5.3t-4.432,4.89q-2.337,2.337-4.891,4.432t-5.3,3.932q-2.747,1.836-5.66,3.393t-5.967,2.821q-3.052,1.265-6.214,2.224t-6.4,1.6q-3.24.643-6.528.968t-6.592.324q-3.3,0-6.592-.324t-6.528-.968q-3.24-.645-6.4-1.6t-6.214-2.224q-3.052-1.264-5.966-2.821t-5.661-3.393q-2.747-1.836-5.3-3.932t-4.89-4.432q-2.337-2.335-4.433-4.89t-3.931-5.3q-1.836-2.747-3.393-5.661t-2.822-5.966q-1.265-3.052-2.223-6.214t-1.6-6.4q-.643-3.24-.968-6.529t-.324-6.591q0-3.3.324-6.592t.968-6.529q.645-3.24,1.6-6.4t2.223-6.214q1.265-3.051,2.822-5.966t3.393-5.661q1.836-2.747,3.931-5.3t4.433-4.89q2.336-2.336,4.89-4.432t5.3-3.931q2.746-1.836,5.661-3.393t5.966-2.822q3.053-1.265,6.214-2.224t6.4-1.6q3.24-.645,6.528-.969T2050.607,3278.371Z" fill="#6595bf"/>
    </g>
    <circle id="Elipse_18" data-name="Elipse 18" cx="63.171" cy="63.171" r="63.171" transform="translate(323.436 3275.451)" fill="#fff"/>
    <g id="Grupo_1396" data-name="Grupo 1396" transform="translate(-1664 -7)">
      <circle id="Elipse_19" data-name="Elipse 19" cx="57.466" cy="57.466" r="57.466" transform="translate(1992.592 3288.157)" fill="#aed3f2"/>
    </g>
    <g id="Grupo_1434" data-name="Grupo 1434" transform="translate(-1660 -7)">
      <path id="Trazado_790" data-name="Trazado 790" d="M2104.353,3344.086a56.189,56.189,0,1,1-56.189-56.189A56.19,56.19,0,0,1,2104.353,3344.086Z" fill="#8fdef6"/>
      <path id="Trazado_791" data-name="Trazado 791" d="M2084.2,3331.986a5.872,5.872,0,0,0-9.729,4.445c0,.149.006.3.018.444l-1.505-1.5-1.888,2.036-2.036-2.036-1.409,1.409-9.813-9.81a2.593,2.593,0,0,0-.21-.211,13.533,13.533,0,0,0-22.993,9.673c0,.149.021.3.024.447l-1.506-1.508-1.887,2.033-2.033-2.033-1.888,2.036-2.033-2.036-1.05,1.047-3.816-3.816-.636-.636a5.827,5.827,0,0,0-3.827-1.423,5.889,5.889,0,0,0-4.352,9.848,5,5,0,0,0,.4.4l13.474,13.474a4.092,4.092,0,0,0,1.129,3.7l39.4,39.4a56.236,56.236,0,0,0,37.809-45.737Z" fill="#70c9e9"/>
      <g id="Grupo_1433" data-name="Grupo 1433">
        <path id="Trazado_792" data-name="Trazado 792" d="M2048.164,3322.9a13.53,13.53,0,1,0,13.532,13.529A13.53,13.53,0,0,0,2048.164,3322.9Zm0,22.117a8.588,8.588,0,1,1,8.591-8.588A8.6,8.6,0,0,1,2048.164,3345.016Z" fill="#fff"/>
        <g id="Grupo_1428" data-name="Grupo 1428">
          <path id="Trazado_793" data-name="Trazado 793" d="M2049.223,3361.247h-2.115v-1.963h2.115Zm0-3.923h-2.115v-1.963h2.115Zm0-3.924h-2.115v-1.96h2.115Z" fill="#fff"/>
        </g>
        <path id="Trazado_794" data-name="Trazado 794" d="M2054.048,3368.61a5.883,5.883,0,1,1-5.884-5.881A5.884,5.884,0,0,1,2054.048,3368.61Z" fill="#fff"/>
        <g id="Grupo_1429" data-name="Grupo 1429">
          <path id="Trazado_795" data-name="Trazado 795" d="M2034.217,3351.875l-1.5-1.5,1.307-1.307,1.5,1.5Zm2.617-2.617-1.5-1.5,1.307-1.307,1.5,1.5Z" fill="#fff"/>
        </g>
        <path id="Trazado_796" data-name="Trazado 796" d="M2032.452,3357.966a4.117,4.117,0,1,1,0-5.823A4.115,4.115,0,0,1,2032.452,3357.966Z" fill="#fff"/>
        <g id="Grupo_1430" data-name="Grupo 1430">
          <path id="Trazado_797" data-name="Trazado 797" d="M2062.113,3351.875l-1.309-1.31,1.5-1.5,1.307,1.307Zm-2.616-2.617-1.307-1.307,1.5-1.5,1.307,1.307Z" fill="#fff"/>
        </g>
        <path id="Trazado_798" data-name="Trazado 798" d="M2069.7,3352.143a4.116,4.116,0,1,1-5.823,0A4.11,4.11,0,0,1,2069.7,3352.143Z" fill="#fff"/>
        <g id="Grupo_1431" data-name="Grupo 1431">
          <path id="Trazado_799" data-name="Trazado 799" d="M2072.983,3337.487h-1.964v-2.117h1.964Zm-3.924,0h-1.96v-2.117h1.96Zm-3.921,0h-1.96v-2.117h1.96Z" fill="#fff"/>
        </g>
        <g id="Grupo_1432" data-name="Grupo 1432">
          <path id="Trazado_800" data-name="Trazado 800" d="M2033.152,3337.487h-1.96v-2.117h1.96Zm-3.92,0h-1.96v-2.117h1.96Zm-3.921,0h-1.963v-2.117h1.963Z" fill="#fff"/>
        </g>
        <path id="Trazado_801" data-name="Trazado 801" d="M2080.348,3330.548a5.881,5.881,0,1,1-5.884,5.88A5.882,5.882,0,0,1,2080.348,3330.548Z" fill="#fff"/>
        <path id="Trazado_802" data-name="Trazado 802" d="M2015.982,3342.31a5.881,5.881,0,1,1,5.884-5.882A5.882,5.882,0,0,1,2015.982,3342.31Z" fill="#fff"/>
      </g>
    </g>
  </g>
</svg>
