<svg xmlns="http://www.w3.org/2000/svg" width="134.505" height="134.504" viewBox="0 0 134.505 134.504">
  <g id="Grupo_3011" data-name="Grupo 3011" transform="translate(-729.712 -1301.003)">
    <g id="Grupo_2798" data-name="Grupo 2798" transform="translate(75 -79)">
      <path id="Trazado_1253" data-name="Trazado 1253" d="M721.964,1380q3.3,0,6.592.324t6.528.969q3.242.643,6.4,1.6t6.214,2.223q3.053,1.265,5.966,2.822t5.661,3.393q2.746,1.836,5.3,3.932t4.89,4.432q2.336,2.336,4.432,4.89t3.931,5.3q1.836,2.747,3.393,5.661t2.822,5.966q1.265,3.052,2.224,6.214t1.6,6.4q.645,3.24.969,6.528t.324,6.592q0,3.3-.324,6.592t-.969,6.529q-.644,3.24-1.6,6.4t-2.224,6.214q-1.264,3.051-2.822,5.966t-3.393,5.66q-1.835,2.748-3.931,5.3t-4.432,4.89q-2.337,2.335-4.89,4.432t-5.3,3.931q-2.748,1.836-5.661,3.393t-5.966,2.822q-3.052,1.265-6.214,2.223t-6.4,1.6q-3.24.645-6.528.968t-6.592.324q-3.3,0-6.592-.324t-6.528-.968q-3.24-.643-6.4-1.6t-6.214-2.223q-3.053-1.264-5.966-2.822t-5.661-3.393q-2.746-1.835-5.3-3.931t-4.89-4.432q-2.337-2.337-4.432-4.89t-3.932-5.3q-1.836-2.747-3.393-5.66t-2.822-5.966q-1.263-3.052-2.223-6.214t-1.6-6.4q-.644-3.242-.968-6.529t-.324-6.592q0-3.3.324-6.592t.968-6.528q.645-3.24,1.6-6.4t2.223-6.214q1.265-3.053,2.822-5.966t3.393-5.661q1.836-2.746,3.932-5.3t4.432-4.89q2.336-2.337,4.89-4.432t5.3-3.932q2.746-1.836,5.661-3.393t5.966-2.822q3.052-1.264,6.214-2.223t6.4-1.6q3.24-.645,6.528-.969T721.964,1380Z" fill="#6595bf"/>
    </g>
    <circle id="Elipse_44" data-name="Elipse 44" cx="63.171" cy="63.171" r="63.171" transform="translate(733.793 1305.084)" fill="#fff"/>
    <g id="Grupo_2799" data-name="Grupo 2799" transform="translate(75 -79)">
      <circle id="Elipse_45" data-name="Elipse 45" cx="57.466" cy="57.466" r="57.466" transform="translate(663.949 1389.789)" fill="#aed3f2"/>
    </g>
    <g id="Grupo_2816" data-name="Grupo 2816" transform="translate(75 -79)">
      <g id="Grupo_2800" data-name="Grupo 2800">
        <path id="Trazado_1254" data-name="Trazado 1254" d="M685.412,1465.27l-12.379-34.422a.977.977,0,0,1,.587-1.24c16.276-5.854,34.616-11.3,50.293-17.987.7-.442,1.251-.006,1.552.83l19.45,50.135,5.282,14.688a.973.973,0,0,1-.582,1.24L712.4,1491.9l-14.508,5.218a.97.97,0,0,1-1.239-.582Z" fill="#fff"/>
      </g>
      <g id="Grupo_2801" data-name="Grupo 2801">
        <path id="Trazado_1255" data-name="Trazado 1255" d="M695.733,1453.848l-6.182-36.05a.97.97,0,0,1,.787-1.121l42.57-7.3,9.749-1.606c.534-.232,1.4.038,1.606,1.229l10.531,52.588,2.636,15.384a.976.976,0,0,1-.787,1.121l-38.981,6.684-15.2,2.609a.982.982,0,0,1-1.121-.793Z" fill="#fff"/>
      </g>
      <g id="Grupo_2802" data-name="Grupo 2802">
        <path id="Trazado_1256" data-name="Trazado 1256" d="M707.659,1443.218v34.66a1.014,1.014,0,0,0,1.008,1.013h57.348a1.014,1.014,0,0,0,1.008-1.013v-61.735h-10.24c-.986,0-3.034.14-3.034-2.1l-.022-10h-45.06a1.01,1.01,0,0,0-1.008,1.008v38.163Z" fill="#fff"/>
      </g>
      <g id="Grupo_2803" data-name="Grupo 2803">
        <path id="Trazado_1257" data-name="Trazado 1257" d="M690.575,1423.776c-5.767,1.94-11.479,3.864-16.955,5.832a.977.977,0,0,0-.587,1.24l12.379,34.422,11.237,31.264a.97.97,0,0,0,1.239.582L712.4,1491.9l33.059-11.886Z" fill="#b5c4cf"/>
      </g>
      <g id="Grupo_2804" data-name="Grupo 2804">
        <path id="Trazado_1258" data-name="Trazado 1258" d="M707.659,1413.707l-17.321,2.97a.97.97,0,0,0-.787,1.121l1.024,5.978,5.158,30.072,5.61,32.746a.981.981,0,0,0,1.121.792l15.2-2.608,27.793-4.766,6.537-1.121H748.57Z" fill="#d7e7ec"/>
      </g>
      <g id="Grupo_2805" data-name="Grupo 2805">
        <path id="Trazado_1259" data-name="Trazado 1259" d="M767.023,1461.594v-45.607c0-.291-.124-.34-.572-.776L755.4,1404.667c-.523-.5-.609-.62-.916-.62H708.667a1.01,1.01,0,0,0-1.008,1.008v72.823a1.014,1.014,0,0,0,1.008,1.013h57.348a1.014,1.014,0,0,0,1.008-1.013Z" fill="#faffff"/>
      </g>
      <g id="Grupo_2806" data-name="Grupo 2806">
        <path id="Trazado_1260" data-name="Trazado 1260" d="M707.659,1413.707l-4.058.695v67.2a1.011,1.011,0,0,0,1.008,1.013h25.659l15.187-2.6,6.537-1.122H708.667a1.014,1.014,0,0,1-1.008-1.013v-64.171Z" fill="#b5c4cf"/>
      </g>
      <g id="Grupo_2807" data-name="Grupo 2807">
        <path id="Trazado_1261" data-name="Trazado 1261" d="M695.733,1453.848l-5.158-30.072q-2.094.7-4.171,1.406l.641,3.736,5.158,30.072,5.615,32.746a.974.974,0,0,0,1.116.793l15.2-2.609,7.211-1.234,21.719-7.816-.259-.405-12.536,2.151-12.605,2.162-15.2,2.609a.982.982,0,0,1-1.121-.793Z" fill="#9aafb7"/>
      </g>
      <g id="Grupo_2808" data-name="Grupo 2808">
        <path id="Trazado_1262" data-name="Trazado 1262" d="M767.023,1461.594v-45.451c0-.544-.178-.55-.572-.932L755.4,1404.667c-.523-.5-.609-.62-.916-.62h-11.97c13.7,18.349,14.486,51.424,4.317,72.068-.469.96-.96,1.882-1.472,2.776h20.658a1.014,1.014,0,0,0,1.008-1.013Z" fill="#d7e7ec"/>
      </g>
      <g id="Grupo_2809" data-name="Grupo 2809">
        <path id="Trazado_1263" data-name="Trazado 1263" d="M753.749,1414.046c0,2.237,2.047,2.1,3.034,2.1h10.24v-.156c0-.292-.124-.34-.572-.777L755.4,1404.667c-.523-.5-.609-.62-.916-.62h-.755Z" fill="#fff"/>
      </g>
      <g id="Grupo_2810" data-name="Grupo 2810">
        <path id="Trazado_1264" data-name="Trazado 1264" d="M766.451,1415.211,755.4,1404.667c-.523-.5-.609-.62-.916-.62h-.755l.022,10c0,2.237,2.047,2.1,3.034,2.1h10.24v-.156C767.023,1415.7,766.9,1415.647,766.451,1415.211Z" fill="#b5c4cf"/>
      </g>
      <g id="Grupo_2811" data-name="Grupo 2811">
        <path id="Trazado_1265" data-name="Trazado 1265" d="M757.914,1426.09H717.338a1.419,1.419,0,0,1,0-2.839h40.576a1.419,1.419,0,1,1,0,2.839Z" fill="#9aafb7"/>
      </g>
      <g id="Grupo_2812" data-name="Grupo 2812">
        <path id="Trazado_1266" data-name="Trazado 1266" d="M757.914,1436.175H717.338a1.419,1.419,0,0,1,0-2.839h40.576a1.419,1.419,0,1,1,0,2.839Z" fill="#9aafb7"/>
      </g>
      <g id="Grupo_2813" data-name="Grupo 2813">
        <path id="Trazado_1267" data-name="Trazado 1267" d="M757.914,1446.261H717.338a1.42,1.42,0,0,1,0-2.84h40.576a1.42,1.42,0,1,1,0,2.84Z" fill="#9aafb7"/>
      </g>
      <g id="Grupo_2814" data-name="Grupo 2814">
        <path id="Trazado_1268" data-name="Trazado 1268" d="M757.914,1456.346H717.338a1.42,1.42,0,0,1,0-2.84h40.576a1.42,1.42,0,1,1,0,2.84Z" fill="#9aafb7"/>
      </g>
      <g id="Grupo_2815" data-name="Grupo 2815">
        <path id="Trazado_1269" data-name="Trazado 1269" d="M757.914,1466.431H717.338a1.419,1.419,0,0,1,0-2.839h40.576a1.419,1.419,0,1,1,0,2.839Z" fill="#9aafb7"/>
      </g>
    </g>
  </g>
</svg>
