<svg xmlns="http://www.w3.org/2000/svg" width="182.384" height="182.384" viewBox="0 0 182.384 182.384">
  <g id="Grupo_3026" data-name="Grupo 3026" transform="translate(-265.005 -7732.537)">
    <path id="Trazado_809" data-name="Trazado 809" d="M2014.844,7769.125q3.745,0,7.471.367t7.4,1.1q3.673.731,7.256,1.817t7.043,2.52q3.459,1.434,6.762,3.2t6.416,3.846q3.113,2.08,6.008,4.456t5.542,5.023q2.648,2.647,5.023,5.542t4.456,6.008q2.08,3.114,3.846,6.416t3.2,6.762q1.433,3.458,2.52,7.043t1.817,7.256q.73,3.672,1.1,7.4t.367,7.471q0,3.743-.367,7.471t-1.1,7.4q-.731,3.672-1.817,7.256t-2.52,7.043q-1.432,3.458-3.2,6.761t-3.846,6.416q-2.08,3.114-4.456,6.008t-5.023,5.542q-2.647,2.648-5.542,5.024t-6.008,4.456q-3.114,2.08-6.416,3.845t-6.762,3.2q-3.459,1.434-7.043,2.52t-7.256,1.818q-3.672.73-7.4,1.1t-7.471.367q-3.744,0-7.471-.367t-7.4-1.1q-3.672-.73-7.256-1.818t-7.042-2.52q-3.461-1.433-6.762-3.2t-6.416-3.845q-3.114-2.081-6.008-4.456t-5.542-5.024q-2.649-2.646-5.024-5.542t-4.456-6.008q-2.079-3.114-3.845-6.416t-3.2-6.761q-1.433-3.461-2.52-7.043t-1.818-7.256q-.731-3.672-1.1-7.4t-.367-7.471q0-3.744.367-7.471t1.1-7.4q.73-3.674,1.818-7.256t2.52-7.043q1.432-3.459,3.2-6.762t3.845-6.416q2.08-3.113,4.456-6.008t5.024-5.542q2.648-2.648,5.542-5.023t6.008-4.456q3.114-2.081,6.416-3.846t6.762-3.2q3.459-1.432,7.042-2.52t7.256-1.817q3.673-.73,7.4-1.1T2014.844,7769.125Z" transform="translate(-1659 -22)" fill="#db9600"/>
    <circle id="Elipse_23" data-name="Elipse 23" cx="71.597" cy="71.597" r="71.597" transform="translate(284.248 7751.75)" fill="#fff"/>
    <circle id="Elipse_24" data-name="Elipse 24" cx="65.13" cy="65.13" r="65.13" transform="translate(290.714 7758.217)" fill="#f2f2f2"/>
    <g id="Grupo_1458" data-name="Grupo 1458" transform="translate(-1659 -22)">
      <circle id="Elipse_29" data-name="Elipse 29" cx="64.483" cy="64.483" r="64.483" transform="translate(1924.005 7845.729) rotate(-45)" fill="#8fdef6"/>
      <path id="Trazado_823" data-name="Trazado 823" d="M2078.2,7859.444l-33.718-33.714-9.286-9.286-4.654-2.678-4.342,4.934-8.325-8.329h-5.36l-1.566,7.8h.06a27.317,27.317,0,0,0-5.373,1.375l-5.8-5.791h0l-4.65,2.685,2.544,7.556a27.927,27.927,0,0,0-4.275,4.274l-7.545-2.544-2.681,4.633.006.007,5.775,5.771a27.351,27.351,0,0,0-1.379,5.35l-7.8,1.56v5.363l8.343,8.339-4.941,4.338,2.681,4.644,9.276,9.286.007.007,33.717,33.71A64.543,64.543,0,0,0,2078.2,7859.444Z" fill="#70c9e9"/>
      <g id="Grupo_1457" data-name="Grupo 1457">
        <g id="Grupo_1454" data-name="Grupo 1454">
          <g id="Grupo_1453" data-name="Grupo 1453">
            <g id="Grupo_1452" data-name="Grupo 1452">
              <path id="Trazado_824" data-name="Trazado 824" d="M2017.875,7810.364h-5.36l-1.563,7.807h8.49Z" fill="#495057"/>
              <path id="Trazado_825" data-name="Trazado 825" d="M1999.841,7813.759l-4.647,2.678,2.548,7.556,7.355-4.261Z" fill="#495057"/>
              <path id="Trazado_826" data-name="Trazado 826" d="M1985.915,7825.727l-2.678,4.636,5.976,5.263,4.248-7.355Z" fill="#495057"/>
              <path id="Trazado_827" data-name="Trazado 827" d="M1979.835,7843.047l0,5.363,7.807,1.563v-8.489Z" fill="#495057"/>
              <path id="Trazado_828" data-name="Trazado 828" d="M1983.237,7861.091l2.678,4.637,7.545-2.544-4.248-7.348Z" fill="#495057"/>
              <path id="Trazado_829" data-name="Trazado 829" d="M1995.195,7875.014l4.647,2.678,5.256-5.972-7.355-4.258Z" fill="#495057"/>
              <path id="Trazado_830" data-name="Trazado 830" d="M2012.515,7881.093h5.36l1.567-7.81h-8.49Z" fill="#495057"/>
              <path id="Trazado_831" data-name="Trazado 831" d="M2030.559,7877.692l4.64-2.678-2.547-7.552-7.352,4.258Z" fill="#495057"/>
              <path id="Trazado_832" data-name="Trazado 832" d="M2044.482,7865.728l2.678-4.637-5.976-5.256-4.248,7.348Z" fill="#495057"/>
              <path id="Trazado_833" data-name="Trazado 833" d="M2050.558,7848.411v-5.363l-7.8-1.563v8.489Z" fill="#495057"/>
              <path id="Trazado_834" data-name="Trazado 834" d="M2047.16,7830.363l-2.678-4.633-7.545,2.541,4.248,7.355Z" fill="#495057"/>
              <path id="Trazado_835" data-name="Trazado 835" d="M2035.2,7816.437l-4.65-2.671-5.249,5.966,7.352,4.261Z" fill="#495057"/>
            </g>
          </g>
          <path id="Trazado_836" data-name="Trazado 836" d="M2015.193,7817.853a27.875,27.875,0,1,0,27.887,27.876A27.873,27.873,0,0,0,2015.193,7817.853Zm0,49.093a21.217,21.217,0,1,1,21.217-21.217A21.219,21.219,0,0,1,2015.2,7866.946Z" fill="#343b43"/>
        </g>
        <path id="Trazado_837" data-name="Trazado 837" d="M2032.668,7845.729a17.473,17.473,0,1,1-17.471-17.475A17.472,17.472,0,0,1,2032.668,7845.729Z" fill="#fff"/>
        <g id="Grupo_1456" data-name="Grupo 1456">
          <g id="Grupo_1455" data-name="Grupo 1455">
            <path id="Trazado_838" data-name="Trazado 838" d="M2015.2,7859.039a13.31,13.31,0,1,1,13.31-13.31A13.326,13.326,0,0,1,2015.2,7859.039Zm0-24.96a11.648,11.648,0,1,0,11.646,11.65A11.663,11.663,0,0,0,2015.2,7834.079Z" fill="#495057"/>
            <path id="Trazado_839" data-name="Trazado 839" d="M2015.2,7859.039c-3.967,0-7.074-5.845-7.074-13.31s3.107-13.31,7.074-13.31v1.66c-2.933,0-5.41,5.336-5.41,11.65s2.477,11.646,5.41,11.646Z" fill="#495057"/>
            <path id="Trazado_840" data-name="Trazado 840" d="M2015.2,7859.039v-1.664c2.932,0,5.406-5.332,5.406-11.646s-2.474-11.65-5.406-11.65v-1.66c3.963,0,7.07,5.845,7.07,13.31S2019.16,7859.039,2015.2,7859.039Z" fill="#495057"/>
            <rect id="Rect치ngulo_857" data-name="Rect치ngulo 857" width="1.664" height="24.96" transform="translate(2014.363 7833.249)" fill="#495057"/>
            <rect id="Rect치ngulo_858" data-name="Rect치ngulo 858" width="24.96" height="1.66" transform="translate(2002.717 7844.899)" fill="#495057"/>
            <path id="Trazado_841" data-name="Trazado 841" d="M2015.2,7840.319a32.015,32.015,0,0,1-10-1.593l.519-1.58a30.618,30.618,0,0,0,18.961,0l.519,1.58A31.99,31.99,0,0,1,2015.2,7840.319Z" fill="#495057"/>
            <path id="Trazado_842" data-name="Trazado 842" d="M2005.716,7854.316l-.519-1.584a32.315,32.315,0,0,1,20,0l-.519,1.584A30.561,30.561,0,0,0,2005.716,7854.316Z" fill="#495057"/>
          </g>
        </g>
      </g>
    </g>
  </g>
</svg>
