<svg xmlns="http://www.w3.org/2000/svg" width="152.443" height="152.443" viewBox="0 0 152.443 152.443">
  <g id="Grupo_3027" data-name="Grupo 3027" transform="translate(-646.744 -7762.125)">
    <path id="Trazado_811" data-name="Trazado 811" d="M2386.966,7769.125q3.744,0,7.47.367t7.4,1.1q3.672.731,7.255,1.817t7.043,2.52q3.46,1.434,6.762,3.2t6.416,3.846q3.114,2.08,6.008,4.456t5.542,5.023q2.649,2.647,5.024,5.542t4.455,6.008q2.08,3.114,3.846,6.416t3.2,6.762q1.433,3.458,2.52,7.043t1.817,7.256q.732,3.672,1.1,7.4t.367,7.471q0,3.743-.367,7.471t-1.1,7.4q-.729,3.672-1.817,7.256t-2.52,7.043q-1.433,3.458-3.2,6.761t-3.846,6.416q-2.079,3.114-4.455,6.008t-5.024,5.542q-2.648,2.648-5.542,5.024t-6.008,4.456q-3.114,2.08-6.416,3.845t-6.762,3.2q-3.459,1.434-7.043,2.52t-7.255,1.818q-3.673.73-7.4,1.1t-7.47.367q-3.746,0-7.471-.367t-7.4-1.1q-3.672-.73-7.255-1.818t-7.043-2.52q-3.461-1.433-6.762-3.2t-6.416-3.845q-3.112-2.081-6.008-4.456t-5.542-5.024q-2.649-2.646-5.024-5.542t-4.455-6.008q-2.081-3.114-3.846-6.416t-3.2-6.761q-1.432-3.461-2.52-7.043t-1.817-7.256q-.731-3.672-1.1-7.4t-.367-7.471q0-3.744.367-7.471t1.1-7.4q.731-3.674,1.817-7.256t2.52-7.043q1.433-3.459,3.2-6.762t3.846-6.416q2.08-3.113,4.455-6.008t5.024-5.542q2.647-2.648,5.542-5.023t6.008-4.456q3.114-2.081,6.416-3.846t6.762-3.2q3.459-1.432,7.043-2.52t7.255-1.817q3.673-.73,7.4-1.1T2386.966,7769.125Z" transform="translate(-1664 -7)" fill="#db9600"/>
    <circle id="Elipse_25" data-name="Elipse 25" cx="71.597" cy="71.597" r="71.597" transform="translate(651.369 7766.75)" fill="#fff"/>
    <circle id="Elipse_26" data-name="Elipse 26" cx="65.13" cy="65.13" r="65.13" transform="translate(657.835 7773.217)" fill="#f2f2f2"/>
    <g id="Grupo_1451" data-name="Grupo 1451" transform="translate(-1664 -7)">
      <path id="Trazado_814" data-name="Trazado 814" d="M2451.45,7845.731a64.484,64.484,0,1,1-64.483-64.486A64.483,64.483,0,0,1,2451.45,7845.731Z" fill="#8fdef6"/>
      <path id="Trazado_815" data-name="Trazado 815" d="M2447.821,7867.062l-60.854-60.854-28.846,64.881,38.41,38.414A64.546,64.546,0,0,0,2447.821,7867.062Z" fill="#70c9e9"/>
      <g id="Grupo_1450" data-name="Grupo 1450">
        <path id="Trazado_816" data-name="Trazado 816" d="M2358.121,7871.089l28.846-64.88,28.844,64.88Z" fill="#fff"/>
        <path id="Trazado_817" data-name="Trazado 817" d="M2380.379,7871.089l6.588-64.88v79.041Z" fill="#cccbca"/>
        <path id="Trazado_818" data-name="Trazado 818" d="M2382.445,7850.562l-2.066,20.527,6.588,14.161v-24.94Z" fill="#e24f3b"/>
        <path id="Trazado_819" data-name="Trazado 819" d="M2358.121,7871.089l24.324-20.527-2.066,20.527Z" fill="#fd8369"/>
        <path id="Trazado_820" data-name="Trazado 820" d="M2415.811,7871.089l-24.311-20.527,2.052,20.527Z" fill="#fd8369"/>
        <path id="Trazado_821" data-name="Trazado 821" d="M2393.552,7871.089l-6.585-64.88v79.041Z" fill="#e6e5e5"/>
        <path id="Trazado_822" data-name="Trazado 822" d="M2391.5,7850.562l2.052,20.527-6.585,14.161v-24.94Z" fill="#ea6552"/>
      </g>
    </g>
  </g>
</svg>
