<svg xmlns="http://www.w3.org/2000/svg" width="134.505" height="134.504" viewBox="0 0 134.505 134.504">
  <g id="Grupo_3013" data-name="Grupo 3013" transform="translate(-694.712 -2984.607)">
    <g id="Grupo_2841" data-name="Grupo 2841" transform="translate(40 -87)">
      <path id="Trazado_1302" data-name="Trazado 1302" d="M721.964,3071.607q3.3,0,6.592.323t6.528.969q3.242.643,6.4,1.6t6.214,2.224q3.053,1.265,5.966,2.822t5.661,3.393q2.746,1.835,5.3,3.931t4.89,4.432q2.336,2.337,4.432,4.89t3.931,5.3q1.836,2.748,3.393,5.661t2.822,5.966q1.265,3.052,2.224,6.214t1.6,6.4q.645,3.241.969,6.529t.324,6.592q0,3.3-.324,6.591t-.969,6.529q-.644,3.24-1.6,6.4t-2.224,6.214q-1.264,3.052-2.822,5.966t-3.393,5.661q-1.835,2.747-3.931,5.3t-4.432,4.89q-2.337,2.337-4.89,4.432t-5.3,3.932q-2.748,1.836-5.661,3.393t-5.966,2.821q-3.052,1.265-6.214,2.224t-6.4,1.6q-3.24.645-6.528.969t-6.592.324q-3.3,0-6.592-.324t-6.528-.969q-3.24-.644-6.4-1.6t-6.214-2.224q-3.053-1.265-5.966-2.821t-5.661-3.393q-2.746-1.836-5.3-3.932t-4.89-4.432q-2.337-2.336-4.432-4.89t-3.932-5.3q-1.836-2.748-3.393-5.661t-2.822-5.966q-1.263-3.052-2.223-6.214t-1.6-6.4q-.644-3.24-.968-6.529t-.324-6.591q0-3.3.324-6.592t.968-6.529q.645-3.24,1.6-6.4t2.223-6.214q1.265-3.051,2.822-5.966t3.393-5.661q1.836-2.747,3.932-5.3t4.432-4.89q2.336-2.335,4.89-4.432t5.3-3.931q2.746-1.836,5.661-3.393t5.966-2.822q3.052-1.265,6.214-2.224t6.4-1.6q3.24-.645,6.528-.969T721.964,3071.607Z" fill="#6595bf"/>
    </g>
    <circle id="Elipse_50" data-name="Elipse 50" cx="63.171" cy="63.171" r="63.171" transform="translate(698.793 2988.687)" fill="#fff"/>
    <g id="Grupo_2842" data-name="Grupo 2842" transform="translate(40 -87)">
      <circle id="Elipse_51" data-name="Elipse 51" cx="57.466" cy="57.466" r="57.466" transform="translate(663.949 3081.393)" fill="#aed3f2"/>
    </g>
    <g id="Grupo_2847" data-name="Grupo 2847" transform="translate(40 -87)">
      <g id="Grupo_2844" data-name="Grupo 2844">
        <path id="Trazado_1304" data-name="Trazado 1304" d="M758.22,3121.75l-2.349.142-1.344-1.954,1.528-2.559c.391-.945,1.123-2.033,2.091-1.9a2.168,2.168,0,0,1,.546.147,2.2,2.2,0,0,1,1.2,2.876l-.324.785Z" fill="#5f6c75"/>
        <path id="Trazado_1305" data-name="Trazado 1305" d="M759.563,3119.286l-.964,2.332-2.253-.122-1.819-1.559,1.289-3.116a2.2,2.2,0,0,1,2.33-1.343l-.842,2.037a.776.776,0,0,0,.421,1.013Z" fill="#4e5a61"/>
        <path id="Trazado_1306" data-name="Trazado 1306" d="M746.807,3100.328a3.722,3.722,0,0,1,3.722,3.718l.057,69.624a3.713,3.713,0,0,1-.052.619c-.295,1.76-1.871,2.541-3.716,2.541l-52.732-.6a3.722,3.722,0,0,1-3.722-3.722v-68.249c0-1.8.523-3.512,2.219-3.859a3.773,3.773,0,0,1,.75-.075h53.473Z" fill="#f5fcff"/>
        <path id="Trazado_1307" data-name="Trazado 1307" d="M750.533,3174.289a3.72,3.72,0,0,1-3.67,3.1H693.335a3.723,3.723,0,0,1-3.723-3.723V3104.05a3.723,3.723,0,0,1,3.1-3.67v72.358a1.551,1.551,0,0,0,1.551,1.551Z" fill="#e6f7fe"/>
        <path id="Trazado_1308" data-name="Trazado 1308" d="M733.186,3114.4H706.841a1.55,1.55,0,0,1-1.55-1.55v-2.479a1.55,1.55,0,0,1,1.55-1.55h27.041a1.551,1.551,0,0,1,1.551,1.551v1.619l-.7.86A1.55,1.55,0,0,1,733.186,3114.4Z" fill="#94d4a2"/>
        <path id="Trazado_1309" data-name="Trazado 1309" d="M735.432,3111.986v1.551a1.549,1.549,0,0,1-1.55,1.55H706.314a1.55,1.55,0,0,1-1.55-1.55v-3.17a1.55,1.55,0,0,1,1.55-1.55h1.551v1.619a1.55,1.55,0,0,0,1.551,1.55Z" fill="#7fcb8f"/>
        <path id="Trazado_1310" data-name="Trazado 1310" d="M706.841,3164.52a4.343,4.343,0,0,1-.088.875c-.4,1.979-2.155,2.545-4.253,2.545-2.4,0-3.821-1.168-3.821-3.566,0-2.018.856-3.568,2.722-4.055a4.345,4.345,0,0,1,5.44,4.2Z" fill="#d5717f"/>
        <path id="Trazado_1311" data-name="Trazado 1311" d="M706.7,3165.62a4.342,4.342,0,1,1-5.3-5.3,4.288,4.288,0,0,0-.141,1.1,4.342,4.342,0,0,0,4.341,4.342A4.395,4.395,0,0,0,706.7,3165.62Z" fill="#cd5668"/>
        <g id="Grupo_2843" data-name="Grupo 2843">
          <path id="Trazado_1312" data-name="Trazado 1312" d="M741.374,3161.275a1.61,1.61,0,0,1-.331.221l-2.149-.892a1.581,1.581,0,0,1-.078-.385l-.1-1.36-.508-4.651h4.751l3.072,3.229-3.618,2.948Z" fill="#bed9fd"/>
          <path id="Trazado_1313" data-name="Trazado 1313" d="M746.026,3157.437l-2.05,1.67-5.485-2.264-.288-2.634h4.751Z" fill="#bed9fd"/>
          <path id="Trazado_1314" data-name="Trazado 1314" d="M751.487,3142.873l-6.884-2.842,7.943-19.233a1.55,1.55,0,0,1,2.025-.842l4.018,1.658a1.55,1.55,0,0,1,.841,2.025Z" fill="#bed9fd"/>
        </g>
        <path id="Trazado_1315" data-name="Trazado 1315" d="M753.443,3138.133l-1.956,4.74-6.885-2.842,1.957-4.739Z" fill="#9ec8fc"/>
        <path id="Trazado_1316" data-name="Trazado 1316" d="M746.026,3157.437l-2.05,1.67-5.485-2.264-.288-2.634h4.751Z" fill="#9ec8fc"/>
        <path id="Trazado_1317" data-name="Trazado 1317" d="M743.12,3139.229l-5.406,13.1a1.55,1.55,0,0,0,.841,2.025l7.118,2.938a1.55,1.55,0,0,0,2.025-.842l5.406-13.1a1.552,1.552,0,0,0-.842-2.025l-7.118-2.938A1.549,1.549,0,0,0,743.12,3139.229Z" fill="#5f6c75"/>
        <path id="Trazado_1318" data-name="Trazado 1318" d="M745.86,3138.682l-6.589,15.967-.716-.3a1.549,1.549,0,0,1-.842-2.023l5.407-13.1a1.55,1.55,0,0,1,2.025-.842Z" fill="#4e5a61"/>
      </g>
      <g id="Grupo_2846" data-name="Grupo 2846">
        <g id="Grupo_2845" data-name="Grupo 2845">
          <path id="Trazado_1319" data-name="Trazado 1319" d="M734.137,3176.227h-40.8a2.563,2.563,0,0,1-2.56-2.56v-16.743a1.163,1.163,0,1,0-2.325,0v16.743a4.891,4.891,0,0,0,4.885,4.886h40.8a1.163,1.163,0,1,0,0-2.326Z" fill="#023b5e"/>
          <path id="Trazado_1320" data-name="Trazado 1320" d="M762.679,3122.043l-2.561-1.056.844-2.042a3.365,3.365,0,0,0-6.221-2.569l-.954,2.308a2.729,2.729,0,0,0-.849.2,2.7,2.7,0,0,0-1.234,1.028l-.013-15.867a4.89,4.89,0,0,0-4.884-4.88H693.334a4.89,4.89,0,0,0-4.885,4.885v47.443a1.163,1.163,0,1,0,2.325,0V3104.05a2.564,2.564,0,0,1,2.56-2.56h53.473a2.563,2.563,0,0,1,2.559,2.557l.017,21.363-4.83,11.7a2.719,2.719,0,0,0-2.509,1.679h0l-5.406,13.1a2.716,2.716,0,0,0,.445,2.794l.469,4.287.1,1.342a2.7,2.7,0,0,0,.693,1.613l-.454,1.1a1.163,1.163,0,0,0,.632,1.518,1.216,1.216,0,0,0,1.518-.631l.454-1.1a2.7,2.7,0,0,0,1.632-.652h0l1.022-.879,3.331-2.714a2.72,2.72,0,0,0,.821-.2,2.691,2.691,0,0,0,1.467-1.47l.633-1.534.017,18.31a2.562,2.562,0,0,1-2.56,2.557h-7.3a1.163,1.163,0,1,0,0,2.326h7.3a4.891,4.891,0,0,0,4.886-4.884l-.022-23.933,2.452-5.943a2.719,2.719,0,0,0-.593-2.956l2.559-6.2a1.163,1.163,0,1,0-2.149-.888l-2.481,6.006-4.734-1.954,4.836-11.709,0-.007,2-4.847c.107-.061-.05-.231.507-.21l4.017,1.658a.388.388,0,0,1,.211.506l-2.255,5.46a1.163,1.163,0,1,0,2.149.888c.479-1.226,2-4.7,2.375-5.831l1.167.481a1.041,1.041,0,0,1,.564,1.358l-4.1,9.935a1.162,1.162,0,0,0,.631,1.518,1.216,1.216,0,0,0,1.518-.631l4.1-9.934a3.37,3.37,0,0,0-1.827-4.4Zm-22.064,38.351a.388.388,0,0,1-.639-.264c-.045-.877-.3-3.18-.4-4.1l4.207,1.736s-3.036,2.516-3.164,2.626Zm11.414-17.488-5.406,13.1c-.107.061.05.231-.506.211L739,3153.279a.388.388,0,0,1-.21-.506l5.406-13.1c.047-.05.1-.288.506-.21l7.117,2.938a.389.389,0,0,1,.211.506Zm6.219-26.206a1.041,1.041,0,0,1,.565,1.357l-.845,2.043-1.922-.793.845-2.043A1.04,1.04,0,0,1,758.248,3116.7Z" fill="#023b5e"/>
          <path id="Trazado_1321" data-name="Trazado 1321" d="M706.315,3109.979h16.98a1.163,1.163,0,1,0,0-2.326h-16.98a2.716,2.716,0,0,0-2.713,2.714v3.17a2.717,2.717,0,0,0,2.713,2.714h27.567a2.717,2.717,0,0,0,2.713-2.714v-3.17a2.716,2.716,0,0,0-2.713-2.714h-5.156a1.163,1.163,0,1,0,0,2.326h5.156a.388.388,0,0,1,.388.388v3.17a.388.388,0,0,1-.388.388H706.315a.388.388,0,0,1-.388-.388v-3.17a.388.388,0,0,1,.388-.388Z" fill="#023b5e"/>
          <path id="Trazado_1322" data-name="Trazado 1322" d="M702.5,3144.641a5.275,5.275,0,0,1-3.7-.981,1.163,1.163,0,1,0-1.273,1.946,6.992,6.992,0,0,0,3.82,1.339v1.648a1.163,1.163,0,1,0,2.326,0v-1.74a5.706,5.706,0,0,0,4.479-4.68,5.009,5.009,0,0,0-3.448-5.731,16.853,16.853,0,0,1-4.332-2.025,1.881,1.881,0,0,1-.516-1.854,2.441,2.441,0,0,1,1.633-1.923,3.886,3.886,0,0,1,3.617.6,1.163,1.163,0,0,0,1.569-1.717,6.009,6.009,0,0,0-3-1.337v-1.513a1.163,1.163,0,1,0-2.326,0v1.6c-.173.038-.349.082-.529.136a4.744,4.744,0,0,0-3.248,3.721,4.174,4.174,0,0,0,1.367,4.113,17.477,17.477,0,0,0,4.992,2.389,2.719,2.719,0,0,1,1.929,3.152,3.383,3.383,0,0,1-3.355,2.854Z" fill="#023b5e"/>
          <path id="Trazado_1323" data-name="Trazado 1323" d="M742.954,3131.431a1.163,1.163,0,0,0-1.163-1.163h-14.11a1.163,1.163,0,1,0,0,2.326h14.11A1.163,1.163,0,0,0,742.954,3131.431Z" fill="#023b5e"/>
          <path id="Trazado_1324" data-name="Trazado 1324" d="M714.347,3132.594h7.908a1.163,1.163,0,0,0,0-2.326h-7.908a1.163,1.163,0,1,0,0,2.326Z" fill="#023b5e"/>
          <path id="Trazado_1325" data-name="Trazado 1325" d="M714.347,3138.8H738.69a1.163,1.163,0,1,0,0-2.326H714.347a1.163,1.163,0,1,0,0,2.326Z" fill="#023b5e"/>
          <path id="Trazado_1326" data-name="Trazado 1326" d="M735.589,3142.673H714.347a1.162,1.162,0,1,0,0,2.325h21.242a1.162,1.162,0,1,0,0-2.325Z" fill="#023b5e"/>
          <path id="Trazado_1327" data-name="Trazado 1327" d="M730.937,3148.875h-16.59a1.163,1.163,0,1,0,0,2.326h16.59a1.163,1.163,0,1,0,0-2.326Z" fill="#023b5e"/>
          <path id="Trazado_1328" data-name="Trazado 1328" d="M702.5,3159.016a5.5,5.5,0,1,0,5.5,5.5A5.511,5.511,0,0,0,702.5,3159.016Zm0,8.683a3.178,3.178,0,1,1,3.178-3.179A3.183,3.183,0,0,1,702.5,3167.7Z" fill="#023b5e"/>
          <path id="Trazado_1329" data-name="Trazado 1329" d="M730.133,3165.465l-.458-2.164a2.662,2.662,0,0,0-5.253.1l-.673,3.857a.588.588,0,0,1-.536.527.6.6,0,0,1-.54-.547l-.656-6.254a2.61,2.61,0,0,0-2.607-2.349h-.031a2.625,2.625,0,0,0-2.552,2.163l-.842,4.735a.542.542,0,0,1-.521.391h-3.321a1.163,1.163,0,1,0,0,2.326h3.321a2.86,2.86,0,0,0,2.789-2.2c.022-.092.848-4.767.864-4.847a.3.3,0,0,1,.289-.244h0a.3.3,0,0,1,.295.265s.655,6.255.662,6.3a2.858,2.858,0,0,0,5.674.127l.673-3.856a.4.4,0,0,1,.345-.358.39.39,0,0,1,.342.339l.458,2.164a2.834,2.834,0,0,0,2.759,2.3h3.372a1.163,1.163,0,1,0,0-2.326h-3.372a.538.538,0,0,1-.484-.46Z" fill="#023b5e"/>
          <path id="Trazado_1330" data-name="Trazado 1330" d="M741.791,3124.066H714.347a1.163,1.163,0,0,0,0,2.326h27.444a1.163,1.163,0,0,0,0-2.326Z" fill="#023b5e"/>
        </g>
      </g>
    </g>
  </g>
</svg>
