<svg xmlns="http://www.w3.org/2000/svg" width="38.498" height="38.497" viewBox="0 0 38.498 38.497">
  <g id="Grupo_3015" data-name="Grupo 3015" transform="translate(-306.775 -4734.034)">
    <g id="Grupo_2850" data-name="Grupo 2850" transform="translate(-35 -16)">
      <path id="Trazado_1349" data-name="Trazado 1349" d="M357.876,4757.659a12.1,12.1,0,0,0-7.634,6.266h5.8A19.322,19.322,0,0,1,357.876,4757.659Z" fill="#dd474d"/>
      <path id="Trazado_1350" data-name="Trazado 1350" d="M363.144,4760.374c-.722-2.164-1.585-3.133-2.12-3.133s-1.4.969-2.12,3.133a22.1,22.1,0,0,0-.83,3.551h5.9A22.178,22.178,0,0,0,363.144,4760.374Z" fill="#dd474d"/>
      <path id="Trazado_1351" data-name="Trazado 1351" d="M371.806,4763.925a12.1,12.1,0,0,0-7.634-6.266,19.322,19.322,0,0,1,1.836,6.266Z" fill="#dd474d"/>
      <path id="Trazado_1352" data-name="Trazado 1352" d="M355.667,4769.283c0-1.122.048-2.246.142-3.343h-6.354a12.072,12.072,0,0,0,0,6.685h6.354C355.715,4771.528,355.667,4770.4,355.667,4769.283Z" fill="#dd474d"/>
      <path id="Trazado_1353" data-name="Trazado 1353" d="M357.682,4769.283c0,1.147.051,2.267.148,3.342h6.388c.1-1.075.149-2.195.149-3.342s-.051-2.268-.149-3.343H357.83C357.733,4767.015,357.682,4768.136,357.682,4769.283Z" fill="#dd474d"/>
      <path id="Trazado_1354" data-name="Trazado 1354" d="M361.024,4750.034a19.248,19.248,0,1,0,19.249,19.249A19.249,19.249,0,0,0,361.024,4750.034Zm13.274,23.873a.958.958,0,0,1-.045.127,14.057,14.057,0,0,1-26.458,0,.958.958,0,0,1-.045-.127,14.065,14.065,0,0,1,0-9.249.965.965,0,0,1,.045-.127,14.057,14.057,0,0,1,26.458,0,.965.965,0,0,1,.045.127,14.048,14.048,0,0,1,0,9.249Z" fill="#dd474d"/>
      <path id="Trazado_1355" data-name="Trazado 1355" d="M366.239,4765.94c.1,1.1.143,2.221.143,3.343s-.048,2.245-.143,3.342h6.354a12.071,12.071,0,0,0,0-6.685Z" fill="#dd474d"/>
      <path id="Trazado_1356" data-name="Trazado 1356" d="M364.172,4780.906a12.094,12.094,0,0,0,7.634-6.266h-5.8A19.315,19.315,0,0,1,364.172,4780.906Z" fill="#dd474d"/>
      <path id="Trazado_1357" data-name="Trazado 1357" d="M350.242,4774.64a12.094,12.094,0,0,0,7.634,6.266,19.315,19.315,0,0,1-1.836-6.266Z" fill="#dd474d"/>
      <path id="Trazado_1358" data-name="Trazado 1358" d="M358.9,4778.191c.722,2.165,1.585,3.133,2.12,3.133s1.4-.968,2.12-3.133a22.07,22.07,0,0,0,.83-3.551h-5.9A22.07,22.07,0,0,0,358.9,4778.191Z" fill="#dd474d"/>
    </g>
  </g>
</svg>
