<svg xmlns="http://www.w3.org/2000/svg" width="228.892" height="598.076" viewBox="0 0 228.892 598.076">
  <g id="Grupo_3016" data-name="Grupo 3016" transform="translate(-300.992 -7148.114)">
    <circle id="Elipse_30" data-name="Elipse 30" cx="26.718" cy="26.718" r="26.718" transform="translate(335.952 7185.899) rotate(-45)" fill="#db9600"/>
    <circle id="Elipse_31" data-name="Elipse 31" cx="32.025" cy="32.025" r="32.025" transform="translate(341.73 7681.015)" fill="#db9600"/>
    <circle id="Elipse_32" data-name="Elipse 32" cx="33.15" cy="33.15" r="33.15" transform="translate(340.015 7367.778)" fill="#db9600"/>
    <g id="Grupo_1468" data-name="Grupo 1468" transform="translate(-17 -45)">
      <path id="Trazado_857" data-name="Trazado 857" d="M390.737,7199.721a33.15,33.15,0,1,0,33.15,33.15A33.149,33.149,0,0,0,390.737,7199.721Zm1,18.577h9.917v15.656h-9.917Zm-2,15.656H379.82V7218.3h9.917Zm-22.509-2.47v-10.716a2.47,2.47,0,0,1,2.47-2.47h8.122v15.656H369.7A2.47,2.47,0,0,1,367.228,7231.484Zm44.547,2.47h-8.121V7218.3h8.121a2.47,2.47,0,0,1,2.47,2.47v10.716A2.47,2.47,0,0,1,411.775,7233.954Z" fill="#023b5e"/>
      <path id="Trazado_858" data-name="Trazado 858" d="M405.786,7228.531l1.554-.188a1.463,1.463,0,0,0,.4.908,1.129,1.129,0,0,0,1.625-.063,1.462,1.462,0,0,0,.34-1.016,1.365,1.365,0,0,0-.326-.96,1.038,1.038,0,0,0-.793-.354,2.8,2.8,0,0,0-.738.12l.176-1.309a1.4,1.4,0,0,0,1-.283,1.007,1.007,0,0,0,.343-.8.92.92,0,0,0-.252-.675.909.909,0,0,0-.669-.251.961.961,0,0,0-.7.286,1.33,1.33,0,0,0-.355.834l-1.479-.252a3.3,3.3,0,0,1,.465-1.214,2.1,2.1,0,0,1,.869-.713,2.906,2.906,0,0,1,1.248-.261,2.489,2.489,0,0,1,1.9.755,2.063,2.063,0,0,0,.535,3.844,2.011,2.011,0,0,1,.432,1.3,2.518,2.518,0,0,1-.807,1.88,3.008,3.008,0,0,1-3.891.122A2.572,2.572,0,0,1,405.786,7228.531Z" fill="#023b5e"/>
      <path id="Trazado_859" data-name="Trazado 859" d="M369.631,7228.526l1.6-.166a1.372,1.372,0,0,0,.4.86,1.1,1.1,0,0,0,.777.317,1.082,1.082,0,0,0,.852-.409,1.864,1.864,0,0,0,.348-1.231,1.69,1.69,0,0,0-.346-1.157,1.154,1.154,0,0,0-.9-.385,1.638,1.638,0,0,0-1.24.611l-1.3-.188.823-4.359h4.245v1.5h-3.027l-.252,1.423a2.454,2.454,0,0,1,2.909.508,2.8,2.8,0,0,1,.741,2.017,3.022,3.022,0,0,1-.6,1.845,2.658,2.658,0,0,1-2.267,1.108,2.814,2.814,0,0,1-1.892-.622A2.557,2.557,0,0,1,369.631,7228.526Z" fill="#023b5e"/>
      <path id="Trazado_860" data-name="Trazado 860" d="M382.7,7223.981v-1.491h5.491v1.166a8.625,8.625,0,0,0-1.383,1.919,11.223,11.223,0,0,0-1.071,2.66,9.882,9.882,0,0,0-.363,2.516h-1.548a10.749,10.749,0,0,1,.717-3.542,11.8,11.8,0,0,1,1.808-3.228Z" fill="#023b5e"/>
      <path id="Trazado_861" data-name="Trazado 861" d="M394.289,7228.814l1.554-.171a1.128,1.128,0,0,0,.3.7.885.885,0,0,0,.635.228,1.034,1.034,0,0,0,.845-.457,3.89,3.89,0,0,0,.446-1.9,1.916,1.916,0,0,1-1.515.7,2.264,2.264,0,0,1-1.7-.762,2.789,2.789,0,0,1-.717-1.986,2.825,2.825,0,0,1,.758-2.054,2.739,2.739,0,0,1,4.018.206,5.088,5.088,0,0,1,.818,3.242,5.164,5.164,0,0,1-.851,3.314,2.757,2.757,0,0,1-2.217,1.016,2.338,2.338,0,0,1-1.589-.523A2.517,2.517,0,0,1,394.289,7228.814Zm3.633-3.507a1.834,1.834,0,0,0-.356-1.206,1.055,1.055,0,0,0-.826-.428.927.927,0,0,0-.74.351,1.8,1.8,0,0,0-.294,1.151,1.825,1.825,0,0,0,.32,1.191,1.024,1.024,0,0,0,1.58.015A1.6,1.6,0,0,0,397.922,7225.307Z" fill="#023b5e"/>
    </g>
    <g id="Grupo_1469" data-name="Grupo 1469" transform="translate(-17 -45)">
      <path id="Trazado_862" data-name="Trazado 862" d="M390.755,7724.89a33.15,33.15,0,1,0,33.15,33.15A33.15,33.15,0,0,0,390.755,7724.89Zm1,18.577h9.917v15.656h-9.917Zm-2,15.656h-9.917v-15.656h9.917Zm-22.509-2.47v-10.716a2.471,2.471,0,0,1,2.47-2.47h8.122v15.656h-8.122A2.47,2.47,0,0,1,367.246,7756.653Zm44.547,2.47h-8.121v-15.656h8.121a2.471,2.471,0,0,1,2.47,2.47v10.716A2.47,2.47,0,0,1,411.793,7759.123Z" fill="#023b5e"/>
      <path id="Trazado_863" data-name="Trazado 863" d="M382.325,7753.7l1.554-.189a1.469,1.469,0,0,0,.4.909,1.131,1.131,0,0,0,1.625-.063,1.463,1.463,0,0,0,.34-1.017,1.365,1.365,0,0,0-.326-.96,1.038,1.038,0,0,0-.793-.354,2.8,2.8,0,0,0-.738.12l.177-1.308a1.413,1.413,0,0,0,.995-.283,1.01,1.01,0,0,0,.343-.8.866.866,0,0,0-.921-.925.966.966,0,0,0-.7.285,1.341,1.341,0,0,0-.355.834l-1.479-.251a3.285,3.285,0,0,1,.466-1.214,2.089,2.089,0,0,1,.868-.714,2.92,2.92,0,0,1,1.248-.26,2.49,2.49,0,0,1,1.9.754,2.065,2.065,0,0,0,.534,3.845,2.01,2.01,0,0,1,.432,1.3,2.515,2.515,0,0,1-.806,1.879,3.011,3.011,0,0,1-3.892.123A2.578,2.578,0,0,1,382.325,7753.7Z" fill="#023b5e"/>
      <path id="Trazado_864" data-name="Trazado 864" d="M369.649,7753.695l1.6-.165a1.371,1.371,0,0,0,.4.859,1.1,1.1,0,0,0,.777.317,1.081,1.081,0,0,0,.852-.408,1.865,1.865,0,0,0,.348-1.231,1.689,1.689,0,0,0-.346-1.157,1.152,1.152,0,0,0-.9-.386,1.635,1.635,0,0,0-1.24.612l-1.3-.189.823-4.359h4.245v1.5h-3.027l-.252,1.422a2.457,2.457,0,0,1,2.909.509,2.8,2.8,0,0,1,.741,2.016,3.023,3.023,0,0,1-.6,1.846,2.661,2.661,0,0,1-2.267,1.108,2.814,2.814,0,0,1-1.892-.623A2.557,2.557,0,0,1,369.649,7753.695Z" fill="#023b5e"/>
      <path id="Trazado_865" data-name="Trazado 865" d="M393.8,7749.151v-1.491h5.491v1.165a8.652,8.652,0,0,0-1.383,1.92,11.218,11.218,0,0,0-1.071,2.659,9.888,9.888,0,0,0-.363,2.516h-1.548a10.761,10.761,0,0,1,.717-3.542,11.8,11.8,0,0,1,1.808-3.227Z" fill="#023b5e"/>
      <path id="Trazado_866" data-name="Trazado 866" d="M405.936,7753.984l1.554-.172a1.126,1.126,0,0,0,.3.7.886.886,0,0,0,.635.229,1.036,1.036,0,0,0,.845-.457,3.89,3.89,0,0,0,.446-1.9,1.919,1.919,0,0,1-1.515.7,2.265,2.265,0,0,1-1.7-.763,2.786,2.786,0,0,1-.717-1.985,2.823,2.823,0,0,1,.758-2.054,2.568,2.568,0,0,1,1.928-.78,2.6,2.6,0,0,1,2.09.985,5.091,5.091,0,0,1,.818,3.243,5.161,5.161,0,0,1-.851,3.313,2.758,2.758,0,0,1-2.217,1.017,2.343,2.343,0,0,1-1.589-.523A2.518,2.518,0,0,1,405.936,7753.984Zm3.633-3.508a1.83,1.83,0,0,0-.356-1.205,1.053,1.053,0,0,0-.826-.429.93.93,0,0,0-.74.351,2.388,2.388,0,0,0,.026,2.342,1.022,1.022,0,0,0,1.58.015A1.6,1.6,0,0,0,409.569,7750.476Z" fill="#023b5e"/>
    </g>
    <g id="Grupo_1470" data-name="Grupo 1470" transform="translate(-17 -45)">
      <path id="Trazado_867" data-name="Trazado 867" d="M390.165,7412.778a33.15,33.15,0,1,0,33.15,33.15A33.15,33.15,0,0,0,390.165,7412.778Zm1,18.577h9.917v15.656h-9.917Zm-2,15.656h-9.917v-15.656h9.917Zm-22.509-2.47v-10.716a2.47,2.47,0,0,1,2.47-2.47h8.122v15.656h-8.122A2.471,2.471,0,0,1,366.656,7444.541Zm44.547,2.47h-8.121v-15.656H411.2a2.47,2.47,0,0,1,2.47,2.47v10.716A2.471,2.471,0,0,1,411.2,7447.011Z" fill="#023b5e"/>
      <path id="Trazado_868" data-name="Trazado 868" d="M369.381,7441.589l1.554-.189a1.463,1.463,0,0,0,.4.909,1.131,1.131,0,0,0,1.625-.063,1.466,1.466,0,0,0,.34-1.017,1.364,1.364,0,0,0-.326-.96,1.041,1.041,0,0,0-.794-.354,2.8,2.8,0,0,0-.737.12l.176-1.308a1.411,1.411,0,0,0,.995-.283,1,1,0,0,0,.343-.8.916.916,0,0,0-.251-.674.906.906,0,0,0-.669-.252.966.966,0,0,0-.7.286,1.338,1.338,0,0,0-.356.834l-1.479-.251a3.3,3.3,0,0,1,.466-1.214,2.1,2.1,0,0,1,.868-.714,2.916,2.916,0,0,1,1.248-.26,2.489,2.489,0,0,1,1.9.754,2.065,2.065,0,0,0,.535,3.845,2.013,2.013,0,0,1,.431,1.3,2.514,2.514,0,0,1-.806,1.88,3.008,3.008,0,0,1-3.891.123A2.575,2.575,0,0,1,369.381,7441.589Z" fill="#023b5e"/>
      <path id="Trazado_869" data-name="Trazado 869" d="M381.393,7441.583l1.6-.166a1.376,1.376,0,0,0,.4.86,1.1,1.1,0,0,0,.777.317,1.082,1.082,0,0,0,.852-.408,1.866,1.866,0,0,0,.348-1.231,1.7,1.7,0,0,0-.345-1.157,1.154,1.154,0,0,0-.9-.386,1.638,1.638,0,0,0-1.241.612l-1.3-.189.822-4.359h4.246v1.5h-3.028l-.251,1.422a2.455,2.455,0,0,1,2.908.509,2.8,2.8,0,0,1,.741,2.016,3.019,3.019,0,0,1-.6,1.845,2.659,2.659,0,0,1-2.267,1.109,2.816,2.816,0,0,1-1.892-.623A2.559,2.559,0,0,1,381.393,7441.583Z" fill="#023b5e"/>
      <path id="Trazado_870" data-name="Trazado 870" d="M393.21,7437.039v-1.492H398.7v1.166a8.676,8.676,0,0,0-1.383,1.919,11.245,11.245,0,0,0-1.071,2.66,9.88,9.88,0,0,0-.363,2.516h-1.548a10.753,10.753,0,0,1,.717-3.542,11.79,11.79,0,0,1,1.808-3.227Z" fill="#023b5e"/>
      <path id="Trazado_871" data-name="Trazado 871" d="M405.5,7441.872l1.554-.172a1.123,1.123,0,0,0,.3.7.883.883,0,0,0,.635.228,1.032,1.032,0,0,0,.845-.457,3.88,3.88,0,0,0,.446-1.9,1.917,1.917,0,0,1-1.515.7,2.263,2.263,0,0,1-1.705-.762,2.785,2.785,0,0,1-.717-1.985,2.825,2.825,0,0,1,.758-2.055,2.571,2.571,0,0,1,1.928-.779,2.6,2.6,0,0,1,2.09.985,5.093,5.093,0,0,1,.818,3.242,5.162,5.162,0,0,1-.851,3.314,2.758,2.758,0,0,1-2.217,1.017,2.343,2.343,0,0,1-1.589-.523A2.519,2.519,0,0,1,405.5,7441.872Zm3.633-3.508a1.828,1.828,0,0,0-.356-1.2,1.053,1.053,0,0,0-.826-.429.927.927,0,0,0-.74.351,2.388,2.388,0,0,0,.026,2.342,1.022,1.022,0,0,0,1.58.015A1.6,1.6,0,0,0,409.131,7438.364Z" fill="#023b5e"/>
    </g>
    <g id="Grupo_2857" data-name="Grupo 2857" transform="translate(-17 -45)" opacity="0.8">
      <path id="Trazado_1399" data-name="Trazado 1399" d="M545.645,7205.129a1.236,1.236,0,0,0,1.238-1.236v-.025a1.238,1.238,0,0,0-1.236-1.239l-9.013-.007V7201.5l0-2.394a2.315,2.315,0,0,0-2.391-2.232H534.2a2.359,2.359,0,0,0-2.335,1.748l-12.115-.01c-3.566,0-6.485,3.2-6.756,7.262H496.9a2.5,2.5,0,0,0-2.5,2.5v33.916H479.57v-9.416a2.5,2.5,0,0,0-2.5-2.5H462.9v-.52c0-2.336-1.268-4.23-2.832-4.23h-.786v-7.73h1.953c.854,0,1.547-1.265,1.547-2.825v-.057c0-1.561-.693-2.826-1.547-2.826h-9.786l.86-11.876a3.345,3.345,0,0,0-3.118-3.77h-.068a3.344,3.344,0,0,0-3.118,3.77l.86,11.876h-9.786c-.854,0-1.547,1.265-1.547,2.826v.057c0,1.56.693,2.825,1.547,2.825h1.9v7.73h-.73c-1.214,0-2.241,1.146-2.644,2.749h-13.1v9h13.1c.4,1.6,1.43,2.75,2.644,2.75h21.822c1.564,0,2.832-1.894,2.832-4.23v-.519H474.57v9.416a2.5,2.5,0,0,0,2.5,2.5H496.9a2.5,2.5,0,0,0,2.5-2.5v-33.916h13.586c.279,4.048,3.187,7.236,6.744,7.238l12.115.01a2.358,2.358,0,0,0,2.332,1.751h.049a2.316,2.316,0,0,0,2.394-2.229l0-2.4v-.791l9.013.007a1.237,1.237,0,0,0,1.238-1.237v-.025a1.237,1.237,0,0,0-1.236-1.238l-9.013-.007.006-6.834Zm-88.235,20.492H440.854v-7.73H457.41Z" fill="#023b5e"/>
    </g>
    <path id="Trazado_1400" data-name="Trazado 1400" d="M394.526,7252.308v-6.1a.829.829,0,0,0-.589-.746,1.182,1.182,0,0,0-1.074.134l-2.379,1.72v-6.534a1.02,1.02,0,0,0-2,0v8.349a.83.83,0,0,0,.59.747,1.186,1.186,0,0,0,1.073-.134l2.379-1.721v4.288h-.743l1.743,5.321,1.743-5.321Z" transform="translate(-17 -45)" fill="#db9600"/>
    <path id="Trazado_1401" data-name="Trazado 1401" d="M390.755,7767.213c-10.375,14.452-1.875,16.827,0,16.827S401.13,7781.665,390.755,7767.213Z" transform="translate(-17 -45)" fill="#db9600"/>
    <g id="Grupo_2858" data-name="Grupo 2858" transform="translate(-17 -45)" opacity="0.8">
      <path id="Trazado_1402" data-name="Trazado 1402" d="M545.856,7461.35c-.022-7.463-.323-12.123-4.337-15.144-3.053-2.3-7.113-2.724-14.746-2.8a8.668,8.668,0,0,0-5.976-3.839v-3.513a5.577,5.577,0,0,0,2.861-1.694v.029c2.088-2.286,3.717-2.146,5.533-.488v-.019a4.415,4.415,0,1,0,0-6.482v-.019c-1.816,1.658-3.445,1.8-5.533-.488v.029a5.5,5.5,0,0,0-8.206,0v-.029c-2.148,2.35-3.825,2.2-5.691.492v.018a4.415,4.415,0,1,0,0,6.48v.019c1.866-1.706,3.543-1.858,5.691.491v-.028a5.584,5.584,0,0,0,2.7,1.647v3.557a8.671,8.671,0,0,0-5.965,3.821H479.094a4.552,4.552,0,0,0-4.5,4.561v23.3h-7v-52.964a4.5,4.5,0,0,0-4.5-4.5h-16a4.5,4.5,0,0,0-4.5,4.5v25.167H420.159v9h26.935a4.5,4.5,0,0,0,4.5-4.5v-25.167h7v52.964a4.5,4.5,0,0,0,4.5,4.5h16a4.5,4.5,0,0,0,4.5-4.5v-23.358h28.453a8.714,8.714,0,0,0,14.842.023c4.675.058,8.251.261,9.218.989.64.481.735,4.265.749,7.922a1.256,1.256,0,0,0-1.185,1.249v1.3a1.265,1.265,0,0,0,1.265,1.265h8.682a1.265,1.265,0,0,0,1.266-1.265v-1.3A1.248,1.248,0,0,0,545.856,7461.35Z" fill="#023b5e"/>
    </g>
    <path id="Trazado_1403" data-name="Trazado 1403" d="M390.165,7455.1c-7.8,10.139-4.953,14.577-1.093,16.451-.7-.689-.893-1.952.867-4.239.06,1.54,1.862,2.985.788,4.239C398.675,7466.581,390.407,7461.283,390.165,7455.1Z" transform="translate(-17 -45)" fill="#db9600"/>
    <g id="Grupo_2859" data-name="Grupo 2859" transform="translate(-17 -45)" opacity="0.8">
      <path id="Trazado_1404" data-name="Trazado 1404" d="M499.791,7745.115c1.074-1.254-.728-2.7-.788-4.24-1.76,2.288-1.572,3.551-.867,4.24-3.86-1.875-6.7-6.312,1.093-16.451C499.47,7734.845,507.739,7740.144,499.791,7745.115Zm10.3-16.451c-7.8,10.139-4.952,14.576-1.092,16.451-.7-.689-.893-1.952.866-4.24.061,1.541,1.863,2.986.789,4.24C518.6,7740.144,510.333,7734.845,510.091,7728.664Zm10.863,0c-7.8,10.139-4.953,14.576-1.092,16.451-.705-.689-.893-1.952.866-4.24.061,1.541,1.863,2.986.789,4.24C529.465,7740.144,521.2,7734.845,520.954,7728.664Zm10.863,0c-7.8,10.139-4.953,14.576-1.092,16.451-.7-.689-.893-1.952.866-4.24.06,1.541,1.863,2.986.789,4.24C540.328,7740.144,532.059,7734.845,531.817,7728.664Zm10.863,0c-7.8,10.139-4.953,14.576-1.093,16.451-.7-.689-.893-1.952.867-4.24.06,1.541,1.862,2.986.788,4.24C551.191,7740.144,542.922,7734.845,542.68,7728.664Zm-.356,19.493H498.648c-2.006,0-3.633.83-3.633,1.854v1.292c0,1.024,1.627,1.854,3.633,1.854h17.338v9.834H455.914a8.708,8.708,0,0,0-14.749.163H421.3v9H441.3a8.668,8.668,0,0,0,5.96,3.82v3.1a3.9,3.9,0,1,0,3.95,6.483v.007c.616-.72,9.877-.529,12.162.07v-.006a15.835,15.835,0,0,0,2.538.174c1.886,0,3.326-.662,3.326-2.548s-1.315-2.764-3.2-2.764a11.054,11.054,0,0,0-2.525.263v-.014c-2.515.929-11.872-.291-12.147-.618v.019a3.95,3.95,0,0,0-1.453-.994v-3.173a8.659,8.659,0,0,0,5.97-3.84h.11v-.143h64.491a4.5,4.5,0,0,0,4.5-4.5v-14.334h17.338c2.006,0,3.632-.83,3.632-1.854v-1.292C545.956,7748.987,544.33,7748.157,542.324,7748.157Z" fill="#023b5e"/>
    </g>
    <g id="Grupo_2860" data-name="Grupo 2860" transform="translate(-17 -45)" opacity="0.4">
      <path id="Trazado_1405" data-name="Trazado 1405" d="M362.451,7235.251v-9H322.492a4.5,4.5,0,0,0-4.5,4.5v540.962h44.459v-9H326.992V7448.8h35.459v-9H326.992V7235.251Z" fill="#023b5e"/>
    </g>
  </g>
</svg>
