<svg xmlns="http://www.w3.org/2000/svg" width="57.144" height="65.307" viewBox="0 0 57.144 65.307">
  <g id="Grupo_7811" data-name="Grupo 7811" transform="translate(-531 -7425.577)">
    <path id="Trazado_3698" data-name="Trazado 3698" d="M543.245,12727.322a4.094,4.094,0,0,0-4.082,4.081v57.144a4.1,4.1,0,0,0,4.082,4.082h40.817a4.094,4.094,0,0,0,4.082-4.082v-44.9l-16.327-16.327Z" transform="translate(0 -5301.746)" fill="#f1f1f1"/>
    <path id="Rectángulo_1995" data-name="Rectángulo 1995" d="M2.041,0h44.9a2.041,2.041,0,0,1,2.041,2.041V22.45a2.04,2.04,0,0,1-2.04,2.04H2.041A2.041,2.041,0,0,1,0,22.449V2.041A2.041,2.041,0,0,1,2.041,0Z" transform="translate(531 7456.189)" fill="red" opacity="0.9"/>
    <path id="Trazado_3699" data-name="Trazado 3699" d="M553.023,12767v7.312h2.708c4.406,0,4.6-7.312,0-7.312Zm-1.021,9.3a1.02,1.02,0,0,1-1.121-.908c0-.037-.005-.074-.005-.111v-9.271a1.109,1.109,0,0,1,1.126-1.02h3.737c7.458,0,7.294,11.292.147,11.292Z" transform="translate(0 -5301.746)" fill="#fff"/>
    <path id="Trazado_3700" data-name="Trazado 3700" d="M565.678,12767.139v2.595h4.161a1.26,1.26,0,0,1,1.176,1.156,1.136,1.136,0,0,1-1.176.98h-4.161v3.426a.966.966,0,0,1-.923,1.009.5.5,0,0,1-.054,0,1.036,1.036,0,0,1-1.151-.908c0-.033-.006-.067-.007-.1v-9.269a1.032,1.032,0,0,1,1.033-1.029,1.074,1.074,0,0,1,.125.008h5.728a1.022,1.022,0,0,1,1.136.892,1.115,1.115,0,0,1-1.135,1.239h-4.752Z" transform="translate(0 -5301.746)" fill="#fff"/>
    <path id="Trazado_3701" data-name="Trazado 3701" d="M575.9,12743.649h12.245l-16.327-16.327v12.245A4.1,4.1,0,0,0,575.9,12743.649Z" transform="translate(0 -5301.746)" fill="#b3b3b3"/>
    <path id="Trazado_3702" data-name="Trazado 3702" d="M541.316,12766.513v4.066h2.725a2.041,2.041,0,0,0,0-4.066Zm-2.153-.928a1.123,1.123,0,0,1,1.108-1.127h3.77a4.082,4.082,0,0,1,0,8.164h-2.723v2.155a1.02,1.02,0,0,1-.91,1.119.892.892,0,0,1-.135,0,1.1,1.1,0,0,1-1.108-1.092v-.032Z" transform="translate(0 -5301.746)" fill="#fff"/>
  </g>
</svg>
